<?xml version="1.0" encoding="UTF-8"?>
<!DOCTYPE svg PUBLIC "-//W3C//DTD SVG 1.1//EN" "http://www.w3.org/Graphics/SVG/1.1/DTD/svg11.dtd">
<svg xmlns="http://www.w3.org/2000/svg" version="1.1" width="560px" height="551px" style="shape-rendering:geometricPrecision; text-rendering:geometricPrecision; image-rendering:optimizeQuality; fill-rule:evenodd; clip-rule:evenodd" xmlns:xlink="http://www.w3.org/1999/xlink">
<g><path style="opacity:1" fill="#f9f9f9" d="M -0.5,-0.5 C 186.167,-0.5 372.833,-0.5 559.5,-0.5C 559.5,183.167 559.5,366.833 559.5,550.5C 372.833,550.5 186.167,550.5 -0.5,550.5C -0.5,366.833 -0.5,183.167 -0.5,-0.5 Z"/></g>
<g><path style="opacity:1" fill="#63442b" d="M 345.5,61.5 C 349.822,64.8256 353.489,68.8256 356.5,73.5C 358.5,74.8333 360.167,76.5 361.5,78.5C 390.617,107.007 402.783,141.674 398,182.5C 392.921,213.168 377.421,237.002 351.5,254C 328.358,267.318 306.525,282.484 286,299.5C 286.067,349.774 286.401,400.107 287,450.5C 287.177,454.356 287.677,458.023 288.5,461.5C 287.499,471.345 287.499,481.345 288.5,491.5C 287.833,497.679 287.167,504.012 286.5,510.5C 278.222,511.47 269.889,511.803 261.5,511.5C 262.071,504.219 261.405,497.219 259.5,490.5C 260.633,482.579 260.8,474.579 260,466.5C 257.286,465.004 254.453,464.004 251.5,463.5C 231.844,452.361 214.678,438.028 200,420.5C 179.876,390.266 178.209,358.933 195,326.5C 211.718,300.703 234.552,282.369 263.5,271.5C 264.666,258.846 264.833,246.18 264,233.5C 253.225,224.053 241.892,215.386 230,207.5C 215.11,213.362 200.277,219.362 185.5,225.5C 182.211,221.715 179.544,217.548 177.5,213C 178.551,211.615 179.884,210.615 181.5,210C 192.742,205.644 203.742,200.811 214.5,195.5C 204.084,186.121 193.084,177.455 181.5,169.5C 180.386,168.277 180.219,166.944 181,165.5C 183.899,161.674 187.232,158.341 191,155.5C 213.211,173.357 235.711,190.857 258.5,208C 260.217,209.559 262.217,210.392 264.5,210.5C 264.667,196.496 264.5,182.496 264,168.5C 246.833,154 229.667,139.5 212.5,125C 215.266,121.478 218.266,118.145 221.5,115C 222.5,114.333 223.5,114.333 224.5,115C 237.5,125.5 250.5,136 263.5,146.5C 264.248,120.107 264.915,93.9407 265.5,68C 263.371,66.8967 261.037,66.3967 258.5,66.5C 194.955,73.6742 145.455,103.674 110,156.5C 71.9781,222.842 70.9781,289.842 107,357.5C 133.26,401.259 170.093,432.593 217.5,451.5C 216.791,452.404 215.791,452.737 214.5,452.5C 145.556,439.047 97.3894,400.047 70,335.5C 46.6883,270.661 52.6883,208.661 88,149.5C 138.665,76.757 208.499,43.5904 297.5,50C 314.038,52.136 330.038,55.9694 345.5,61.5 Z"/></g>
<g><path style="opacity:1" fill="#434b37" d="M 345.5,61.5 C 405.274,82.445 448.774,121.445 476,178.5C 507.211,254.78 500.544,327.447 456,396.5C 414.483,452.736 358.65,484.403 288.5,491.5C 287.499,481.345 287.499,471.345 288.5,461.5C 308.058,458.57 326.891,453.237 345,445.5C 345.384,406.787 345.551,368.12 345.5,329.5C 353.586,329.199 361.586,329.533 369.5,330.5C 369.5,364.5 369.5,398.5 369.5,432.5C 370.791,432.737 371.791,432.404 372.5,431.5C 386.588,424.366 399.421,415.366 411,404.5C 411.5,357.835 411.667,311.168 411.5,264.5C 419.833,264.5 428.167,264.5 436.5,264.5C 436.333,300.835 436.5,337.168 437,373.5C 462.989,334.884 473.989,292.218 470,245.5C 463.379,189.915 438.712,144.248 396,108.5C 391.878,102.709 387.378,97.2095 382.5,92C 376.315,86.0903 369.649,80.9237 362.5,76.5C 360.97,74.6535 358.97,73.6535 356.5,73.5C 353.489,68.8256 349.822,64.8256 345.5,61.5 Z"/></g>
<g><path style="opacity:1" fill="#f6f5f5" d="M 284.5,66.5 C 354.066,70.5586 385.899,107.225 380,176.5C 374.865,204.618 360.365,226.451 336.5,242C 320.037,251.428 302.704,258.594 284.5,263.5C 284.334,253.494 284.5,243.494 285,233.5C 296.435,225.532 307.601,217.199 318.5,208.5C 326.931,211.215 335.265,214.215 343.5,217.5C 349.007,214.664 352.674,210.331 354.5,204.5C 348.424,202.632 342.424,200.466 336.5,198C 335.833,197.333 335.167,196.667 334.5,196C 346.5,186.667 358.5,177.333 370.5,168C 366.966,163.469 363.132,159.303 359,155.5C 334.344,174.819 309.678,194.153 285,213.5C 284.667,213.167 284.333,212.833 284,212.5C 283.033,197.407 283.367,182.407 285,167.5C 302.336,153.659 319.503,139.659 336.5,125.5C 334.062,121.558 331.062,118.058 327.5,115C 326.5,114.333 325.5,114.333 324.5,115C 311.042,125.456 297.876,136.289 285,147.5C 284.667,147.167 284.333,146.833 284,146.5C 283.176,119.761 283.343,93.0945 284.5,66.5 Z"/></g>
<g><path style="opacity:1" fill="#b5afa4" d="M 356.5,73.5 C 358.97,73.6535 360.97,74.6535 362.5,76.5C 361.662,76.8417 361.328,77.5084 361.5,78.5C 360.167,76.5 358.5,74.8333 356.5,73.5 Z"/></g>
<g><path style="opacity:1" fill="#f7f7f7" d="M 362.5,76.5 C 369.649,80.9237 376.315,86.0903 382.5,92C 387.378,97.2095 391.878,102.709 396,108.5C 438.712,144.248 463.379,189.915 470,245.5C 473.989,292.218 462.989,334.884 437,373.5C 436.5,337.168 436.333,300.835 436.5,264.5C 428.167,264.5 419.833,264.5 411.5,264.5C 411.667,311.168 411.5,357.835 411,404.5C 399.421,415.366 386.588,424.366 372.5,431.5C 370.835,398.012 369.835,364.346 369.5,330.5C 361.586,329.533 353.586,329.199 345.5,329.5C 345.551,368.12 345.384,406.787 345,445.5C 326.891,453.237 308.058,458.57 288.5,461.5C 287.677,458.023 287.177,454.356 287,450.5C 286.401,400.107 286.067,349.774 286,299.5C 306.525,282.484 328.358,267.318 351.5,254C 377.421,237.002 392.921,213.168 398,182.5C 402.783,141.674 390.617,107.007 361.5,78.5C 361.328,77.5084 361.662,76.8417 362.5,76.5 Z"/></g>
<g><path style="opacity:1" fill="#434b37" d="M 418.5,214.5 C 433.86,213.162 442.86,219.995 445.5,235C 441.587,252.901 430.92,258.901 413.5,253C 402.375,244.708 400.209,234.541 407,222.5C 410.464,219.195 414.297,216.528 418.5,214.5 Z"/></g>
<g><path style="opacity:1" fill="#aea89b" d="M 277.5,283.5 C 277.158,282.662 276.492,282.328 275.5,282.5C 277.64,281.095 279.974,280.262 282.5,280C 281.154,281.669 279.487,282.836 277.5,283.5 Z"/></g>
<g><path style="opacity:1" fill="#434b37" d="M 351.5,280.5 C 370.483,279.649 378.983,288.649 377,307.5C 370.493,320.783 360.326,324.616 346.5,319C 335.878,311.16 333.711,301.327 340,289.5C 343.183,285.462 347.016,282.462 351.5,280.5 Z"/></g>
<g><path style="opacity:1" fill="#efeeec" d="M 275.5,282.5 C 276.492,282.328 277.158,282.662 277.5,283.5C 259.802,297.077 244.302,312.744 231,330.5C 213.854,355.395 208.021,382.728 213.5,412.5C 213.737,413.791 213.404,414.791 212.5,415.5C 208.774,410.859 206.274,405.526 205,399.5C 199.213,372.649 204.213,347.983 220,325.5C 234.271,305.732 252.771,291.398 275.5,282.5 Z"/></g>
<g><path style="opacity:1" fill="#aea89b" d="M 261.5,324.5 C 261.56,323.957 261.893,323.624 262.5,323.5C 263.822,332.658 263.822,341.658 262.5,350.5C 262.826,341.651 262.493,332.984 261.5,324.5 Z"/></g>
<g><path style="opacity:1" fill="#f5f4f4" d="M 261.5,324.5 C 262.493,332.984 262.826,341.651 262.5,350.5C 262.667,381.168 262.5,411.835 262,442.5C 261.83,448.528 261.33,454.528 260.5,460.5C 230.556,431.281 223.723,397.281 240,358.5C 245.942,346.258 253.109,334.924 261.5,324.5 Z"/></g>
<g><path style="opacity:1" fill="#aea89b" d="M 59.5,331.5 C 58.6618,331.842 58.3284,332.508 58.5,333.5C 57.3775,331.712 57.2109,329.712 58,327.5C 58.7914,328.745 59.2914,330.078 59.5,331.5 Z"/></g>
<g><path style="opacity:1" fill="#aea89b" d="M 369.5,330.5 C 369.835,364.346 370.835,398.012 372.5,431.5C 371.791,432.404 370.791,432.737 369.5,432.5C 369.5,398.5 369.5,364.5 369.5,330.5 Z"/></g>
<g><path style="opacity:1" fill="#434b37" d="M 59.5,331.5 C 84.4139,397.573 131.081,439.74 199.5,458C 216.634,461.747 233.967,463.58 251.5,463.5C 254.453,464.004 257.286,465.004 260,466.5C 260.8,474.579 260.633,482.579 259.5,490.5C 186.443,486.065 128.61,454.399 86,395.5C 73.8377,376.187 64.671,355.52 58.5,333.5C 58.3284,332.508 58.6618,331.842 59.5,331.5 Z"/></g>
<g><path style="opacity:1" fill="#aea89b" d="M 213.5,412.5 C 214.568,414.672 215.068,417.005 215,419.5C 213.519,418.529 212.685,417.196 212.5,415.5C 213.404,414.791 213.737,413.791 213.5,412.5 Z"/></g>
<g><path style="opacity:1" fill="#aea89b" d="M 217.5,451.5 C 218.922,451.709 220.255,452.209 221.5,453C 218.961,453.796 216.628,453.629 214.5,452.5C 215.791,452.737 216.791,452.404 217.5,451.5 Z"/></g>
</svg>
