<?xml version="1.0" encoding="UTF-8"?>
<!DOCTYPE svg PUBLIC "-//W3C//DTD SVG 1.1//EN" "http://www.w3.org/Graphics/SVG/1.1/DTD/svg11.dtd">
<svg xmlns="http://www.w3.org/2000/svg" version="1.1" width="1144px" height="311px" style="shape-rendering:geometricPrecision; text-rendering:geometricPrecision; image-rendering:optimizeQuality; fill-rule:evenodd; clip-rule:evenodd" xmlns:xlink="http://www.w3.org/1999/xlink">
<g><path style="opacity:1" fill="#f9faf9" d="M -0.5,-0.5 C 380.833,-0.5 762.167,-0.5 1143.5,-0.5C 1143.5,103.167 1143.5,206.833 1143.5,310.5C 919.5,310.5 695.5,310.5 471.5,310.5C 470.335,307.978 469.002,307.978 467.5,310.5C 465.833,310.5 464.167,310.5 462.5,310.5C 460.714,308.078 459.048,308.078 457.5,310.5C 304.833,310.5 152.167,310.5 -0.5,310.5C -0.5,206.833 -0.5,103.167 -0.5,-0.5 Z"/></g>
<g><path style="opacity:1" fill="#9b8f8e" d="M 170.5,23.5 C 157.413,23.4777 144.413,24.4777 131.5,26.5C 137.865,24.3824 144.532,23.2158 151.5,23C 158.014,22.18 164.347,22.3467 170.5,23.5 Z"/></g>
<g><path style="opacity:1" fill="#9b8f8e" d="M 573.5,22.5 C 564.66,24.0016 555.66,25.335 546.5,26.5C 555.155,23.7899 564.155,22.4566 573.5,22.5 Z"/></g>
<g><path style="opacity:1" fill="#9b8f8e" d="M 575.5,22.5 C 586.892,21.8082 597.892,23.1416 608.5,26.5C 597.428,24.5819 586.428,23.2486 575.5,22.5 Z"/></g>
<g><path style="opacity:1" fill="#9b8f8e" d="M 1012.5,26.5 C 991.828,22.5262 971.161,22.5262 950.5,26.5C 960.121,23.4125 970.121,22.0792 980.5,22.5C 991.508,22.2093 1002.17,23.5426 1012.5,26.5 Z"/></g>
<g><path style="opacity:1" fill="#9b8f8e" d="M 170.5,23.5 C 178.555,23.3141 186.222,24.6474 193.5,27.5C 185.687,26.2543 178.021,24.921 170.5,23.5 Z"/></g>
<g><path style="opacity:1" fill="#62462e" d="M 573.5,22.5 C 574.167,22.5 574.833,22.5 575.5,22.5C 586.428,23.2486 597.428,24.5819 608.5,26.5C 610.503,28.9819 613.169,29.9819 616.5,29.5C 621.977,30.7705 627.31,32.4372 632.5,34.5C 634.046,36.9305 636.379,38.2639 639.5,38.5C 641.336,40.588 643.669,41.9213 646.5,42.5C 646.973,43.9063 647.973,44.573 649.5,44.5C 650.585,46.5869 652.251,47.9202 654.5,48.5C 655.262,50.2624 656.596,51.2624 658.5,51.5C 659.911,53.914 661.911,55.5806 664.5,56.5C 667.153,59.9998 669.653,63.6665 672,67.5C 674.287,69.0544 676.454,70.7211 678.5,72.5C 679.167,72.5 679.5,72.8333 679.5,73.5C 679.427,75.0269 680.094,76.0269 681.5,76.5C 681.427,78.0269 682.094,79.0269 683.5,79.5C 683.427,81.0269 684.094,82.0269 685.5,82.5C 686.079,85.3311 687.412,87.6644 689.5,89.5C 690.127,93.4201 691.793,96.7534 694.5,99.5C 695.11,100.391 695.443,101.391 695.5,102.5C 695.899,106.116 696.899,109.45 698.5,112.5C 698.083,116.817 698.75,120.817 700.5,124.5C 703.167,138.167 703.167,151.833 700.5,165.5C 698.228,172.632 696.228,179.965 694.5,187.5C 694.672,188.492 694.338,189.158 693.5,189.5C 691.992,191.181 690.992,193.181 690.5,195.5C 690.672,196.492 690.338,197.158 689.5,197.5C 688.094,197.973 687.427,198.973 687.5,200.5C 686.094,200.973 685.427,201.973 685.5,203.5C 684.094,203.973 683.427,204.973 683.5,206.5C 681.738,207.262 680.738,208.596 680.5,210.5C 680.5,211.167 680.167,211.5 679.5,211.5C 676.757,213.239 674.757,215.573 673.5,218.5C 672.5,220.167 671.167,221.5 669.5,222.5C 667.251,223.08 665.585,224.413 664.5,226.5C 664.167,227.5 663.5,228.167 662.5,228.5C 660.596,228.738 659.262,229.738 658.5,231.5C 656.973,231.427 655.973,232.094 655.5,233.5C 652.669,234.079 650.336,235.412 648.5,237.5C 645.515,238.326 642.849,239.659 640.5,241.5C 640.158,242.338 639.492,242.672 638.5,242.5C 634.884,243.314 631.551,244.648 628.5,246.5C 627.791,247.404 626.791,247.737 625.5,247.5C 618.352,249.038 611.352,250.705 604.5,252.5C 598.223,252.549 592.056,253.216 586,254.5C 585.83,264.675 585.33,274.675 584.5,284.5C 580.894,284.789 577.394,284.456 574,283.5C 573.83,273.325 573.33,263.325 572.5,253.5C 567.635,251.959 562.635,251.292 557.5,251.5C 552.702,249.716 547.702,248.383 542.5,247.5C 540.898,245.926 538.898,245.259 536.5,245.5C 534.574,243.707 532.241,242.707 529.5,242.5C 527.377,240.203 524.71,238.87 521.5,238.5C 520.508,238.672 519.842,238.338 519.5,237.5C 518.341,235.75 516.674,234.75 514.5,234.5C 514.027,233.094 513.027,232.427 511.5,232.5C 510.404,229.227 508.071,227.561 504.5,227.5C 503.833,227.5 503.5,227.167 503.5,226.5C 500.769,222.766 497.436,219.766 493.5,217.5C 491.518,213.854 488.851,210.854 485.5,208.5C 485.573,206.973 484.906,205.973 483.5,205.5C 483.262,203.596 482.262,202.262 480.5,201.5C 480.573,199.973 479.906,198.973 478.5,198.5C 478.25,196.326 477.25,194.659 475.5,193.5C 456.337,156.787 455.671,119.787 473.5,82.5C 475.664,80.178 477.331,77.5113 478.5,74.5C 479.906,74.0269 480.573,73.0269 480.5,71.5C 482.587,70.4154 483.92,68.7488 484.5,66.5C 490.833,60.8333 496.833,54.8333 502.5,48.5C 504.404,48.2624 505.738,47.2624 506.5,45.5C 506.5,44.8333 506.833,44.5 507.5,44.5C 509.027,44.573 510.027,43.9063 510.5,42.5C 512.027,42.573 513.027,41.9063 513.5,40.5C 515.674,40.2503 517.341,39.2503 518.5,37.5C 518.842,36.6618 519.508,36.3284 520.5,36.5C 528.254,34.2559 535.587,31.2559 542.5,27.5C 543.568,26.5655 544.901,26.2322 546.5,26.5C 555.66,25.335 564.66,24.0016 573.5,22.5 Z"/></g>
<g><path style="opacity:1" fill="#545347" d="M 1012.5,26.5 C 1013.79,26.2627 1014.79,26.596 1015.5,27.5C 1019.22,29.4053 1023.22,30.7387 1027.5,31.5C 1028.49,31.3284 1029.16,31.6618 1029.5,32.5C 1033.85,35.3411 1038.52,37.6745 1043.5,39.5C 1048.28,42.0597 1052.94,44.893 1057.5,48C 1058.71,49.0391 1059.71,50.2058 1060.5,51.5C 1062.24,54.2427 1064.57,56.2427 1067.5,57.5C 1073.12,62.7146 1078.28,68.3813 1083,74.5C 1085.83,78.1554 1087.99,82.1554 1089.5,86.5C 1090.33,89.4848 1091.66,92.1515 1093.5,94.5C 1094.67,95.5137 1095.34,96.847 1095.5,98.5C 1096.07,102.537 1097.4,106.203 1099.5,109.5C 1104.79,131.511 1104.79,153.511 1099.5,175.5C 1099.77,177.099 1099.43,178.432 1098.5,179.5C 1096.73,181.792 1095.73,184.458 1095.5,187.5C 1091.82,197.543 1086.15,206.209 1078.5,213.5C 1074.83,216.5 1071.5,219.833 1068.5,223.5C 1068.17,224.5 1067.5,225.167 1066.5,225.5C 1064.25,226.08 1062.58,227.413 1061.5,229.5C 1056.92,233.47 1051.92,236.97 1046.5,240C 1043.48,241.18 1040.48,242.346 1037.5,243.5C 1033.86,244.263 1030.53,245.597 1027.5,247.5C 1022.91,250.024 1017.91,251.358 1012.5,251.5C 1004.47,252.282 996.473,253.282 988.5,254.5C 988.272,264.596 988.106,274.596 988,284.5C 983.599,285.467 979.099,285.8 974.5,285.5C 974.5,275.167 974.5,264.833 974.5,254.5C 971.214,253.793 967.881,253.46 964.5,253.5C 961.219,253.58 958.219,252.913 955.5,251.5C 950.383,249.463 945.05,247.796 939.5,246.5C 937.447,246.598 935.78,245.931 934.5,244.5C 930.151,241.659 925.484,239.326 920.5,237.5C 901.5,228.165 887.166,214.165 877.5,195.5C 875.674,190.516 873.341,185.849 870.5,181.5C 869.935,177.463 868.601,173.797 866.5,170.5C 865.596,169.791 865.263,168.791 865.5,167.5C 859.924,141.504 861.924,116.171 871.5,91.5C 873.359,86.7766 875.526,82.1099 878,77.5C 881.989,71.6825 886.489,66.3492 891.5,61.5C 894.5,59.1667 897.167,56.5 899.5,53.5C 900.29,52.2058 901.29,51.0391 902.5,50C 906.716,46.9439 911.049,44.1106 915.5,41.5C 918.331,40.9213 920.664,39.588 922.5,37.5C 930.996,31.8866 940.329,28.22 950.5,26.5C 971.161,22.5262 991.828,22.5262 1012.5,26.5 Z"/></g>
<g><path style="opacity:1" fill="#63462e" d="M 170.5,23.5 C 178.021,24.921 185.687,26.2543 193.5,27.5C 195.099,27.2322 196.432,27.5655 197.5,28.5C 199.971,30.4433 202.971,31.4433 206.5,31.5C 207.78,32.9313 209.447,33.5979 211.5,33.5C 214.418,35.6258 217.751,37.2925 221.5,38.5C 224.579,41.5455 228.246,43.8789 232.5,45.5C 234.23,46.0256 235.564,47.0256 236.5,48.5C 237.262,50.2624 238.596,51.2624 240.5,51.5C 245.5,57.1667 250.833,62.5 256.5,67.5C 257.167,67.5 257.5,67.8333 257.5,68.5C 257.738,70.4044 258.738,71.7377 260.5,72.5C 260.738,74.4044 261.738,75.7377 263.5,76.5C 265,80.173 267,83.5063 269.5,86.5C 272.538,93.2352 275.538,99.9019 278.5,106.5C 281.946,120.154 283.946,133.821 284.5,147.5C 282.799,166.269 277.466,183.936 268.5,200.5C 268.672,201.492 268.338,202.158 267.5,202.5C 265.674,204.147 264.34,206.147 263.5,208.5C 261.413,209.585 260.08,211.251 259.5,213.5C 259.5,214.167 259.167,214.5 258.5,214.5C 253.833,218.5 249.5,222.833 245.5,227.5C 245.167,228.5 244.5,229.167 243.5,229.5C 241.596,229.738 240.262,230.738 239.5,232.5C 237.973,232.427 236.973,233.094 236.5,234.5C 234.973,234.427 233.973,235.094 233.5,236.5C 231.326,236.75 229.659,237.75 228.5,239.5C 223.516,241.326 218.849,243.659 214.5,246.5C 213.22,247.931 211.553,248.598 209.5,248.5C 204.562,249.231 199.895,250.565 195.5,252.5C 187.208,253.882 178.875,255.048 170.5,256C 169.944,256.383 169.611,256.883 169.5,257.5C 169.5,267.5 169.5,277.5 169.5,287.5C 165.546,289.711 161.38,290.044 157,288.5C 156.821,277.923 156.321,267.423 155.5,257C 147.119,255.69 138.785,254.19 130.5,252.5C 126.784,250.595 122.784,249.261 118.5,248.5C 117.22,247.069 115.553,246.402 113.5,246.5C 110.503,243.504 106.836,241.837 102.5,241.5C 100.664,239.412 98.3311,238.079 95.5,237.5C 95.0269,236.094 94.0269,235.427 92.5,235.5C 92.0269,234.094 91.0269,233.427 89.5,233.5C 88.7377,231.738 87.4044,230.738 85.5,230.5C 84.4154,228.413 82.7488,227.08 80.5,226.5C 74.3913,220.064 68.3913,213.73 62.5,207.5C 62.573,205.973 61.9063,204.973 60.5,204.5C 59.5987,203.71 58.9321,202.71 58.5,201.5C 57.6597,199.147 56.3264,197.147 54.5,195.5C 53.6743,192.515 52.341,189.849 50.5,187.5C 37.9666,157.096 37.2999,126.429 48.5,95.5C 52.1582,88.8885 55.8249,82.2218 59.5,75.5C 60.9063,75.0269 61.573,74.0269 61.5,72.5C 63.2624,71.7377 64.2624,70.4044 64.5,68.5C 71.5,62.8333 77.8333,56.5 83.5,49.5C 85.4044,49.2624 86.7377,48.2624 87.5,46.5C 89.0269,46.573 90.0269,45.9063 90.5,44.5C 92.0269,44.573 93.0269,43.9063 93.5,42.5C 96.4062,41.892 98.7396,40.5587 100.5,38.5C 100.842,37.6618 101.508,37.3284 102.5,37.5C 105.485,36.6743 108.151,35.341 110.5,33.5C 110.842,32.6618 111.508,32.3284 112.5,32.5C 117.148,31.3381 121.814,30.1714 126.5,29C 127.056,28.6174 127.389,28.1174 127.5,27.5C 128.568,26.5655 129.901,26.2322 131.5,26.5C 144.413,24.4777 157.413,23.4777 170.5,23.5 Z"/></g>
<g><path style="opacity:1" fill="#6e6960" d="M 608.5,26.5 C 611.428,26.5651 614.095,27.2318 616.5,28.5C 616.5,28.8333 616.5,29.1667 616.5,29.5C 613.169,29.9819 610.503,28.9819 608.5,26.5 Z"/></g>
<g><path style="opacity:1" fill="#9b8f8e" d="M 1015.5,27.5 C 1019.92,27.8606 1023.92,29.1939 1027.5,31.5C 1023.22,30.7387 1019.22,29.4053 1015.5,27.5 Z"/></g>
<g><path style="opacity:1" fill="#9b8f8e" d="M 616.5,29.5 C 616.5,29.1667 616.5,28.8333 616.5,28.5C 622.423,29.1382 627.756,31.1382 632.5,34.5C 627.31,32.4372 621.977,30.7705 616.5,29.5 Z"/></g>
<g><path style="opacity:1" fill="#7e7771" d="M 127.5,27.5 C 127.389,28.1174 127.056,28.6174 126.5,29C 121.814,30.1714 117.148,31.3381 112.5,32.5C 117.085,29.8605 122.085,28.1938 127.5,27.5 Z"/></g>
<g><path style="opacity:1" fill="#8b817e" d="M 197.5,28.5 C 200.854,28.7475 203.854,29.7475 206.5,31.5C 202.971,31.4433 199.971,30.4433 197.5,28.5 Z"/></g>
<g><path style="opacity:1" fill="#9b8f8e" d="M 206.5,31.5 C 208.553,31.4021 210.22,32.0687 211.5,33.5C 209.447,33.5979 207.78,32.9313 206.5,31.5 Z"/></g>
<g><path style="opacity:1" fill="#7f7772" d="M 542.5,27.5 C 535.587,31.2559 528.254,34.2559 520.5,36.5C 521.058,35.2101 522.058,34.3768 523.5,34C 529.654,31.2538 535.987,29.0871 542.5,27.5 Z"/></g>
<g><path style="opacity:1" fill="#9b8f8e" d="M 1029.5,32.5 C 1034.75,33.793 1039.42,36.1263 1043.5,39.5C 1038.52,37.6745 1033.85,35.3411 1029.5,32.5 Z"/></g>
<g><path style="opacity:1" fill="#9b8f8e" d="M 110.5,33.5 C 108.151,35.341 105.485,36.6743 102.5,37.5C 104.579,35.127 107.246,33.7936 110.5,33.5 Z"/></g>
<g><path style="opacity:1" fill="#9b8f8e" d="M 188.5,37.5 C 182.188,36.6459 175.855,35.9793 169.5,35.5C 169.5,46.5 169.5,57.5 169.5,68.5C 168.341,57.3409 168.174,46.0076 169,34.5C 169.333,34.1667 169.667,33.8333 170,33.5C 176.329,34.5166 182.495,35.8499 188.5,37.5 Z"/></g>
<g><path style="opacity:1" fill="#9b8f8e" d="M 595.5,37.5 C 581.608,33.8606 567.608,33.5272 553.5,36.5C 563.857,33.6455 574.524,32.8122 585.5,34C 589.245,34.3022 592.578,35.4688 595.5,37.5 Z"/></g>
<g><path style="opacity:1" fill="#9b8f8e" d="M 957.5,238.5 C 962.744,239.815 968.077,240.482 973.5,240.5C 973.047,172.061 973.047,103.727 973.5,35.5C 961.073,36.3107 949.073,38.9774 937.5,43.5C 942.726,40.4753 948.393,38.3086 954.5,37C 960.292,35.5934 966.125,34.4267 972,33.5C 972.772,33.6448 973.439,33.9781 974,34.5C 974.667,103.5 974.667,172.5 974,241.5C 973.439,242.022 972.772,242.355 972,242.5C 966.845,241.845 962.012,240.512 957.5,238.5 Z"/></g>
<g><path style="opacity:1" fill="#9b8f8e" d="M 1006.5,36.5 C 1000.8,36.0789 995.131,35.4122 989.5,34.5C 989.358,102.716 989.358,171.383 989.5,240.5C 996.88,240.303 1004.21,239.636 1011.5,238.5C 1004.17,241.133 996.501,241.966 988.5,241C 987.869,239.094 987.536,237.094 987.5,235C 987.491,168.715 987.658,102.215 988,35.5C 989.18,34.3159 990.68,33.6493 992.5,33.5C 997.401,34.0117 1002.07,35.0117 1006.5,36.5 Z"/></g>
<g><path style="opacity:1" fill="#9b8f8e" d="M 155.5,36.5 C 150.249,35.81 144.915,35.81 139.5,36.5C 142.938,35.3138 146.604,34.6472 150.5,34.5C 152.64,34.5561 154.306,35.2227 155.5,36.5 Z"/></g>
<g><path style="opacity:1" fill="#918583" d="M 211.5,33.5 C 215.431,34.1322 218.765,35.7989 221.5,38.5C 217.751,37.2925 214.418,35.6258 211.5,33.5 Z"/></g>
<g><path style="opacity:1" fill="#f9faf9" d="M 595.5,37.5 C 598.515,39.6744 601.849,41.3411 605.5,42.5C 606.659,44.2503 608.326,45.2503 610.5,45.5C 612.239,48.2427 614.573,50.2427 617.5,51.5C 619.273,54.0599 621.273,56.3932 623.5,58.5C 633.478,73.727 635.811,90.0603 630.5,107.5C 628.992,109.181 627.992,111.181 627.5,113.5C 624.791,116.208 622.458,119.208 620.5,122.5C 618.596,122.738 617.262,123.738 616.5,125.5C 612.665,127.25 608.999,129.25 605.5,131.5C 604.508,131.328 603.842,131.662 603.5,132.5C 594.782,134.525 586.116,134.525 577.5,132.5C 576.486,131.326 575.153,130.66 573.5,130.5C 570.167,127.833 567.167,124.833 564.5,121.5C 563.125,117.968 562.125,114.302 561.5,110.5C 562.328,107.521 562.995,104.521 563.5,101.5C 564.906,101.027 565.573,100.027 565.5,98.5C 566.833,97.8333 567.833,96.8333 568.5,95.5C 570.027,95.573 571.027,94.9063 571.5,93.5C 575.674,91.936 580.007,91.2694 584.5,91.5C 586.817,92.9416 588.984,92.6082 591,90.5C 591.801,87.633 591.634,84.9664 590.5,82.5C 590.5,81.8333 590.167,81.5 589.5,81.5C 580.64,78.3985 571.973,79.2318 563.5,84C 562.619,84.7083 561.953,85.5416 561.5,86.5C 560.833,86.5 560.5,86.8333 560.5,87.5C 558.5,87.5 557.5,88.5 557.5,90.5C 556.833,90.5 556.5,90.8333 556.5,91.5C 555.094,91.9731 554.427,92.9731 554.5,94.5C 552.59,95.9746 551.424,97.9746 551,100.5C 548.965,107.93 549.299,115.264 552,122.5C 552.697,124.584 553.864,126.251 555.5,127.5C 556.768,131.767 559.435,134.767 563.5,136.5C 563.5,137.167 563.833,137.5 564.5,137.5C 566.579,139.873 569.246,141.206 572.5,141.5C 577.778,143.378 583.112,145.045 588.5,146.5C 587.5,146.833 586.833,147.5 586.5,148.5C 580.833,152.167 576.167,156.833 572.5,162.5C 570.738,163.262 569.738,164.596 569.5,166.5C 566.498,169.161 564.498,172.495 563.5,176.5C 561.101,180.048 559.601,184.048 559,188.5C 556.713,199.438 557.213,210.105 560.5,220.5C 560.654,225.289 561.987,229.622 564.5,233.5C 564.961,235.55 565.628,237.55 566.5,239.5C 566.167,239.833 565.833,240.167 565.5,240.5C 555.218,238.85 545.218,236.183 535.5,232.5C 531.334,229.916 527,227.583 522.5,225.5C 520.469,223.478 518.135,221.811 515.5,220.5C 514.055,218.937 512.389,217.604 510.5,216.5C 507.5,212.833 504.167,209.5 500.5,206.5C 499.833,205.167 498.833,204.167 497.5,203.5C 496.92,201.251 495.587,199.585 493.5,198.5C 493.573,196.973 492.906,195.973 491.5,195.5C 491.573,193.973 490.906,192.973 489.5,192.5C 489.25,190.326 488.25,188.659 486.5,187.5C 486.34,185.847 485.674,184.514 484.5,183.5C 483.341,179.849 481.674,176.515 479.5,173.5C 473.688,154.549 472.021,135.215 474.5,115.5C 476.277,112.495 477.277,109.162 477.5,105.5C 478.871,103.064 479.871,100.397 480.5,97.5C 482.674,94.4846 484.341,91.1513 485.5,87.5C 486.338,87.1583 486.672,86.4916 486.5,85.5C 487.906,85.0269 488.573,84.0269 488.5,82.5C 489.338,82.1583 489.672,81.4916 489.5,80.5C 490.906,80.0269 491.573,79.0269 491.5,77.5C 493.914,76.0892 495.581,74.0892 496.5,71.5C 497.167,71.5 497.5,71.1667 497.5,70.5C 501.5,67.1667 505.167,63.5 508.5,59.5C 509.167,59.5 509.5,59.1667 509.5,58.5C 511.749,57.9202 513.415,56.5869 514.5,54.5C 516.027,54.573 517.027,53.9063 517.5,52.5C 518.167,52.5 518.5,52.1667 518.5,51.5C 520.674,51.2503 522.341,50.2503 523.5,48.5C 525.674,48.2503 527.341,47.2503 528.5,45.5C 530.819,45.0075 532.819,44.0075 534.5,42.5C 541.051,40.8704 547.384,38.8704 553.5,36.5C 567.608,33.5272 581.608,33.8606 595.5,37.5 Z"/></g>
<g><path style="opacity:1" fill="#f9faf9" d="M 1006.5,36.5 C 1007.57,37.4345 1008.9,37.7678 1010.5,37.5C 1013.8,39.6013 1017.46,40.9347 1021.5,41.5C 1022.21,42.404 1023.21,42.7373 1024.5,42.5C 1027.52,44.6744 1030.85,46.3411 1034.5,47.5C 1037.01,49.9236 1040.01,51.5903 1043.5,52.5C 1045.3,54.9 1047.63,56.5667 1050.5,57.5C 1050.5,58.1667 1050.83,58.5 1051.5,58.5C 1055.5,63.1667 1059.83,67.5 1064.5,71.5C 1064.5,72.1667 1064.83,72.5 1065.5,72.5C 1066.08,74.7488 1067.41,76.4154 1069.5,77.5C 1075.88,86.9359 1081.22,96.9359 1085.5,107.5C 1086.34,112.739 1087.67,117.739 1089.5,122.5C 1090.81,136.502 1090.81,150.502 1089.5,164.5C 1087.72,168.595 1086.39,172.928 1085.5,177.5C 1084.46,178.93 1083.8,180.597 1083.5,182.5C 1081.99,184.181 1080.99,186.181 1080.5,188.5C 1078.41,190.336 1077.08,192.669 1076.5,195.5C 1074.41,196.585 1073.08,198.251 1072.5,200.5C 1071.5,200.833 1070.83,201.5 1070.5,202.5C 1068.41,203.585 1067.08,205.251 1066.5,207.5C 1064.17,209.167 1062.17,211.167 1060.5,213.5C 1058.25,214.08 1056.58,215.413 1055.5,217.5C 1050.13,221.179 1044.8,224.846 1039.5,228.5C 1036.76,228.707 1034.43,229.707 1032.5,231.5C 1031.5,231.5 1030.5,231.5 1029.5,231.5C 1029.67,197.498 1029.5,163.498 1029,129.5C 1023.55,128.194 1018.05,128.194 1012.5,129.5C 1011.51,165.79 1011.17,202.124 1011.5,238.5C 1004.21,239.636 996.88,240.303 989.5,240.5C 989.358,171.383 989.358,102.716 989.5,34.5C 995.131,35.4122 1000.8,36.0789 1006.5,36.5 Z"/></g>
<g><path style="opacity:1" fill="#f9faf9" d="M 155.5,36.5 C 155.5,36.8333 155.5,37.1667 155.5,37.5C 155.452,55.2778 155.452,73.2778 155.5,91.5C 154.5,92.8333 153.5,92.8333 152.5,91.5C 149.874,89.1765 147.207,86.8432 144.5,84.5C 142.393,82.2733 140.06,80.2733 137.5,78.5C 135.766,75.7997 133.432,73.7997 130.5,72.5C 129.686,70.7274 128.352,70.2274 126.5,71C 123.403,73.3906 121.237,76.224 120,79.5C 120.816,80.8228 121.983,81.4894 123.5,81.5C 124.911,83.914 126.911,85.5806 129.5,86.5C 132.231,90.2343 135.564,93.2343 139.5,95.5C 140.585,97.5869 142.251,98.9202 144.5,99.5C 144.5,100.167 144.833,100.5 145.5,100.5C 146.262,102.262 147.596,103.262 149.5,103.5C 151.167,105.833 153.167,107.833 155.5,109.5C 155.5,117.833 155.5,126.167 155.5,134.5C 154.833,135.5 154.167,136.5 153.5,137.5C 153.5,136.833 153.167,136.5 152.5,136.5C 150.469,134.478 148.135,132.811 145.5,131.5C 144.71,130.599 143.71,129.932 142.5,129.5C 141.421,127.457 139.754,126.124 137.5,125.5C 134.149,122.152 130.482,119.152 126.5,116.5C 124.431,113.427 121.764,111.094 118.5,109.5C 118.5,108.833 118.167,108.5 117.5,108.5C 115.12,105.119 112.12,102.453 108.5,100.5C 107.686,98.7274 106.352,98.2274 104.5,99C 102.112,101.05 100.112,103.384 98.5,106C 101.386,110.387 105.053,113.887 109.5,116.5C 110.911,118.914 112.911,120.581 115.5,121.5C 117.144,123.481 118.81,125.481 120.5,127.5C 117.769,129.192 115.102,130.858 112.5,132.5C 109.088,133.075 106.088,134.408 103.5,136.5C 101.748,136.418 100.748,137.251 100.5,139C 101.717,141.368 102.551,143.868 103,146.5C 104.616,147.801 106.116,147.801 107.5,146.5C 109.553,146.598 111.22,145.931 112.5,144.5C 115.744,143.537 118.744,142.204 121.5,140.5C 123.553,140.598 125.22,139.931 126.5,138.5C 128.153,138.34 129.486,137.674 130.5,136.5C 132.216,136.629 133.883,136.962 135.5,137.5C 140.936,142.601 146.936,146.934 153.5,150.5C 154.97,152.159 155.637,154.159 155.5,156.5C 155.308,167.101 155.308,177.767 155.5,188.5C 155.5,188.833 155.5,189.167 155.5,189.5C 155.5,207.5 155.5,225.5 155.5,243.5C 145.343,242.794 135.343,241.128 125.5,238.5C 124.22,237.069 122.553,236.402 120.5,236.5C 118.491,234.935 116.157,233.935 113.5,233.5C 111.151,231.659 108.485,230.326 105.5,229.5C 105.027,228.094 104.027,227.427 102.5,227.5C 100.853,225.674 98.8525,224.34 96.5,223.5C 95.5637,222.026 94.2303,221.026 92.5,220.5C 89.1924,217.529 85.859,214.529 82.5,211.5C 80.9059,208.236 78.5725,205.569 75.5,203.5C 75.2624,201.596 74.2624,200.262 72.5,199.5C 69.7483,194.326 66.7483,189.326 63.5,184.5C 62.9579,181.088 61.6246,178.088 59.5,175.5C 51.609,151.147 51.609,126.814 59.5,102.5C 61.7306,99.1637 63.3973,95.497 64.5,91.5C 66.588,89.6644 67.9213,87.3311 68.5,84.5C 70.3264,82.8525 71.6597,80.8525 72.5,78.5C 73.1667,78.5 73.5,78.1667 73.5,77.5C 75.5869,76.4154 76.9202,74.7488 77.5,72.5C 78.1667,72.5 78.5,72.1667 78.5,71.5C 83.5261,66.8053 88.5261,62.1387 93.5,57.5C 94.1667,57.5 94.5,57.1667 94.5,56.5C 96.0269,56.573 97.0269,55.9063 97.5,54.5C 99.4044,54.2624 100.738,53.2624 101.5,51.5C 103.674,51.2503 105.341,50.2503 106.5,48.5C 110.151,47.3411 113.485,45.6744 116.5,43.5C 118.553,43.5979 120.22,42.9313 121.5,41.5C 127.687,40.1227 133.687,38.4561 139.5,36.5C 144.915,35.81 150.249,35.81 155.5,36.5 Z"/></g>
<g><path style="opacity:1" fill="#f9faf9" d="M 188.5,37.5 C 192.617,39.2035 196.951,40.5368 201.5,41.5C 202.78,42.9313 204.447,43.5979 206.5,43.5C 211.502,47.0031 216.835,50.0031 222.5,52.5C 222.973,53.9063 223.973,54.573 225.5,54.5C 226.262,56.2624 227.596,57.2624 229.5,57.5C 230.585,59.5869 232.251,60.9202 234.5,61.5C 237.5,65.1667 240.833,68.5 244.5,71.5C 246.016,74.5331 248.016,77.1997 250.5,79.5C 250.738,81.4044 251.738,82.7377 253.5,83.5C 253.427,85.0269 254.094,86.0269 255.5,86.5C 257.992,92.8177 260.992,98.8177 264.5,104.5C 271.327,124.106 272.827,144.106 269,164.5C 266.849,172.789 264.016,180.789 260.5,188.5C 258,191.494 256,194.827 254.5,198.5C 251.444,200.949 249.111,203.949 247.5,207.5C 244.5,209.833 241.833,212.5 239.5,215.5C 238.5,215.833 237.833,216.5 237.5,217.5C 235.251,218.08 233.585,219.413 232.5,221.5C 230.973,221.427 229.973,222.094 229.5,223.5C 227.973,223.427 226.973,224.094 226.5,225.5C 224.973,225.427 223.973,226.094 223.5,227.5C 212.565,233.306 201.232,237.973 189.5,241.5C 182.88,242.603 176.214,243.27 169.5,243.5C 169.5,213.167 169.5,182.833 169.5,152.5C 170.71,152.068 171.71,151.401 172.5,150.5C 174.027,150.573 175.027,149.906 175.5,148.5C 177.23,147.974 178.564,146.974 179.5,145.5C 181.027,145.573 182.027,144.906 182.5,143.5C 184.23,142.974 185.564,141.974 186.5,140.5C 188.595,139.588 190.595,138.421 192.5,137C 193.793,136.51 195.127,136.343 196.5,136.5C 198.649,137.736 200.982,138.736 203.5,139.5C 204.78,140.931 206.447,141.598 208.5,141.5C 210.426,143.293 212.759,144.293 215.5,144.5C 217.861,146.625 220.528,147.291 223.5,146.5C 224.273,143.569 225.273,140.736 226.5,138C 224.783,136.441 222.783,135.608 220.5,135.5C 219.22,134.069 217.553,133.402 215.5,133.5C 212.485,131.326 209.151,129.659 205.5,128.5C 206.415,126.246 207.748,124.246 209.5,122.5C 210.167,122.5 210.5,122.167 210.5,121.5C 213.764,119.906 216.431,117.573 218.5,114.5C 219.833,114.5 220.5,113.833 220.5,112.5C 222.404,112.262 223.738,111.262 224.5,109.5C 225.167,109.5 225.5,109.167 225.5,108.5C 227.145,107.521 228.479,106.188 229.5,104.5C 227.424,101.419 224.757,99.0858 221.5,97.5C 219.394,98.4295 217.394,99.5962 215.5,101C 211.271,105.398 206.938,109.564 202.5,113.5C 201.5,113.833 200.833,114.5 200.5,115.5C 198.596,115.738 197.262,116.738 196.5,118.5C 195.833,118.5 195.5,118.833 195.5,119.5C 190.617,122.109 186.284,125.443 182.5,129.5C 180.973,129.427 179.973,130.094 179.5,131.5C 178.833,131.5 178.5,131.833 178.5,132.5C 176.973,132.427 175.973,133.094 175.5,134.5C 173.973,134.427 172.973,135.094 172.5,136.5C 171.307,136.03 170.64,135.03 170.5,133.5C 169.435,125.856 169.268,118.189 170,110.5C 170.366,108.548 171.199,106.882 172.5,105.5C 173.833,104.833 174.833,103.833 175.5,102.5C 177.404,102.262 178.738,101.262 179.5,99.5C 181.749,98.9202 183.415,97.5869 184.5,95.5C 185.167,95.5 185.5,95.1667 185.5,94.5C 187.749,93.9202 189.415,92.5869 190.5,90.5C 192.404,90.2624 193.738,89.2624 194.5,87.5C 197.089,86.5806 199.089,84.914 200.5,82.5C 201.5,82.1667 202.167,81.5 202.5,80.5C 204.384,80.2882 205.717,79.2882 206.5,77.5C 204.03,73.4885 200.696,70.9885 196.5,70C 195.29,71.0391 194.29,72.2058 193.5,73.5C 190.911,74.4194 188.911,76.086 187.5,78.5C 185.251,79.0798 183.585,80.4131 182.5,82.5C 181.5,82.8333 180.833,83.5 180.5,84.5C 178.251,85.0798 176.585,86.4131 175.5,88.5C 174.833,88.5 174.5,88.8333 174.5,89.5C 172.833,90.1667 171.167,90.8333 169.5,91.5C 169.5,83.8333 169.5,76.1667 169.5,68.5C 169.5,57.5 169.5,46.5 169.5,35.5C 175.855,35.9793 182.188,36.6459 188.5,37.5 Z"/></g>
<g><path style="opacity:1" fill="#79726c" d="M 632.5,34.5 C 635.331,35.0787 637.664,36.412 639.5,38.5C 636.379,38.2639 634.046,36.9305 632.5,34.5 Z"/></g>
<g><path style="opacity:1" fill="#f9faf9" d="M 957.5,238.5 C 957.176,224.255 957.51,210.088 958.5,196C 957.833,195.333 957.167,194.667 956.5,194C 951.249,193.196 946.082,193.363 941,194.5C 940.639,197.525 940.139,200.525 939.5,203.5C 940.332,210.223 940.665,216.89 940.5,223.5C 940.14,226.702 939.474,229.702 938.5,232.5C 928.096,227.793 918.43,221.793 909.5,214.5C 906.5,210.833 903.167,207.5 899.5,204.5C 890.392,192.947 883.392,180.28 878.5,166.5C 877.861,161.304 876.861,156.304 875.5,151.5C 874.588,142.465 874.588,133.465 875.5,124.5C 876.989,119.383 877.989,114.049 878.5,108.5C 883.586,95.6638 890.253,83.6638 898.5,72.5C 900.587,71.4154 901.92,69.7488 902.5,67.5C 904.167,66.5 905.5,65.1667 906.5,63.5C 908.749,62.9202 910.415,61.5869 911.5,59.5C 916.45,56.5475 921.117,53.2141 925.5,49.5C 929.818,48.0078 933.818,46.0078 937.5,43.5C 949.073,38.9774 961.073,36.3107 973.5,35.5C 973.047,103.727 973.047,172.061 973.5,240.5C 968.077,240.482 962.744,239.815 957.5,238.5 Z"/></g>
<g><path style="opacity:1" fill="#9b8f8e" d="M 139.5,36.5 C 133.687,38.4561 127.687,40.1227 121.5,41.5C 127.051,38.6095 133.051,36.9428 139.5,36.5 Z"/></g>
<g><path style="opacity:1" fill="#9b8f8e" d="M 553.5,36.5 C 547.384,38.8704 541.051,40.8704 534.5,42.5C 540.365,39.3241 546.699,37.3241 553.5,36.5 Z"/></g>
<g><path style="opacity:1" fill="#9b8f8e" d="M 155.5,37.5 C 156.824,55.5978 156.824,73.5978 155.5,91.5C 155.452,73.2778 155.452,55.2778 155.5,37.5 Z"/></g>
<g><path style="opacity:1" fill="#9b8f8e" d="M 188.5,37.5 C 193.289,37.6538 197.622,38.9871 201.5,41.5C 196.951,40.5368 192.617,39.2035 188.5,37.5 Z"/></g>
<g><path style="opacity:1" fill="#9b8f8e" d="M 518.5,37.5 C 517.341,39.2503 515.674,40.2503 513.5,40.5C 514.659,38.7497 516.326,37.7497 518.5,37.5 Z"/></g>
<g><path style="opacity:1" fill="#9b8f8e" d="M 595.5,37.5 C 599.42,38.1266 602.753,39.7933 605.5,42.5C 601.849,41.3411 598.515,39.6744 595.5,37.5 Z"/></g>
<g><path style="opacity:1" fill="#9b8f8e" d="M 922.5,37.5 C 920.664,39.588 918.331,40.9213 915.5,41.5C 917.336,39.412 919.669,38.0787 922.5,37.5 Z"/></g>
<g><path style="opacity:1" fill="#9b8f8e" d="M 1010.5,37.5 C 1014.54,38.0653 1018.2,39.3987 1021.5,41.5C 1017.46,40.9347 1013.8,39.6013 1010.5,37.5 Z"/></g>
<g><path style="opacity:1" fill="#9b8f8e" d="M 639.5,38.5 C 642.326,38.9977 644.66,40.3311 646.5,42.5C 643.669,41.9213 641.336,40.588 639.5,38.5 Z"/></g>
<g><path style="opacity:1" fill="#7c756f" d="M 100.5,38.5 C 98.7396,40.5587 96.4062,41.892 93.5,42.5C 95.3356,40.412 97.6689,39.0787 100.5,38.5 Z"/></g>
<g><path style="opacity:1" fill="#887e7b" d="M 221.5,38.5 C 225.976,39.6571 229.642,41.9905 232.5,45.5C 228.246,43.8789 224.579,41.5455 221.5,38.5 Z"/></g>
<g><path style="opacity:1" fill="#9b8f8e" d="M 513.5,40.5 C 513.027,41.9063 512.027,42.573 510.5,42.5C 510.973,41.0937 511.973,40.427 513.5,40.5 Z"/></g>
<g><path style="opacity:1" fill="#9b8f8e" d="M 121.5,41.5 C 120.22,42.9313 118.553,43.5979 116.5,43.5C 117.78,42.0687 119.447,41.4021 121.5,41.5 Z"/></g>
<g><path style="opacity:1" fill="#9b8f8e" d="M 201.5,41.5 C 203.553,41.4021 205.22,42.0687 206.5,43.5C 204.447,43.5979 202.78,42.9313 201.5,41.5 Z"/></g>
<g><path style="opacity:1" fill="#9b8f8e" d="M 93.5,42.5 C 93.0269,43.9063 92.0269,44.573 90.5,44.5C 90.9731,43.0937 91.9731,42.427 93.5,42.5 Z"/></g>
<g><path style="opacity:1" fill="#9b8f8e" d="M 510.5,42.5 C 510.027,43.9063 509.027,44.573 507.5,44.5C 507.973,43.0937 508.973,42.427 510.5,42.5 Z"/></g>
<g><path style="opacity:1" fill="#9b8f8e" d="M 605.5,42.5 C 607.674,42.7497 609.341,43.7497 610.5,45.5C 608.326,45.2503 606.659,44.2503 605.5,42.5 Z"/></g>
<g><path style="opacity:1" fill="#9b8f8e" d="M 646.5,42.5 C 648.027,42.427 649.027,43.0937 649.5,44.5C 647.973,44.573 646.973,43.9063 646.5,42.5 Z"/></g>
<g><path style="opacity:1" fill="#9b8f8e" d="M 1024.5,42.5 C 1028.42,43.1266 1031.75,44.7933 1034.5,47.5C 1030.85,46.3411 1027.52,44.6744 1024.5,42.5 Z"/></g>
<g><path style="opacity:1" fill="#9b8f8e" d="M 632.5,47.5 C 631.209,47.2627 630.209,47.596 629.5,48.5C 626.984,47.3996 625.984,45.7329 626.5,43.5C 628.813,44.5005 630.813,45.8338 632.5,47.5 Z"/></g>
<g><path style="opacity:1" fill="#9b8f8e" d="M 937.5,43.5 C 933.818,46.0078 929.818,48.0078 925.5,49.5C 928.914,46.4598 932.914,44.4598 937.5,43.5 Z"/></g>
<g><path style="opacity:1" fill="#9b8f8e" d="M 90.5,44.5 C 90.0269,45.9063 89.0269,46.573 87.5,46.5C 87.9731,45.0937 88.9731,44.427 90.5,44.5 Z"/></g>
<g><path style="opacity:1" fill="#9b8f8e" d="M 649.5,44.5 C 651.749,45.0798 653.415,46.4131 654.5,48.5C 652.251,47.9202 650.585,46.5869 649.5,44.5 Z"/></g>
<g><path style="opacity:1" fill="#908583" d="M 206.5,43.5 C 208.262,43.3573 209.929,43.6906 211.5,44.5C 215.411,46.9434 219.078,49.6101 222.5,52.5C 216.835,50.0031 211.502,47.0031 206.5,43.5 Z"/></g>
<g><path style="opacity:1" fill="#9b8f8e" d="M 506.5,45.5 C 505.738,47.2624 504.404,48.2624 502.5,48.5C 503.262,46.7376 504.596,45.7376 506.5,45.5 Z"/></g>
<g><path style="opacity:1" fill="#9b8f8e" d="M 528.5,45.5 C 527.341,47.2503 525.674,48.2503 523.5,48.5C 524.659,46.7497 526.326,45.7497 528.5,45.5 Z"/></g>
<g><path style="opacity:1" fill="#9b8f8e" d="M 610.5,45.5 C 613.427,46.7573 615.761,48.7573 617.5,51.5C 614.573,50.2427 612.239,48.2427 610.5,45.5 Z"/></g>
<g><path style="opacity:1" fill="#9b8f8e" d="M 87.5,46.5 C 86.7377,48.2624 85.4044,49.2624 83.5,49.5C 84.2623,47.7376 85.5956,46.7376 87.5,46.5 Z"/></g>
<g><path style="opacity:1" fill="#f9faf9" d="M 629.5,48.5 C 630.209,47.596 631.209,47.2627 632.5,47.5C 632.973,48.9063 633.973,49.573 635.5,49.5C 637.975,52.2411 640.975,54.2411 644.5,55.5C 645.262,57.2624 646.596,58.2624 648.5,58.5C 649.911,60.914 651.911,62.5806 654.5,63.5C 655.5,65.1667 656.833,66.5 658.5,67.5C 660.788,71.4558 663.788,74.7891 667.5,77.5C 668.759,81.0246 670.759,84.0246 673.5,86.5C 673.427,88.0269 674.094,89.0269 675.5,89.5C 678.538,96.2352 681.538,102.902 684.5,109.5C 684.721,112.067 685.388,114.401 686.5,116.5C 693.023,144.02 689.356,170.02 675.5,194.5C 674.094,194.973 673.427,195.973 673.5,197.5C 671.738,198.262 670.738,199.596 670.5,201.5C 665.5,207.167 660.167,212.5 654.5,217.5C 653.833,217.5 653.5,217.833 653.5,218.5C 650.158,220.836 646.825,223.169 643.5,225.5C 641.973,225.427 640.973,226.094 640.5,227.5C 636.182,228.992 632.182,230.992 628.5,233.5C 623.618,234.792 618.952,236.459 614.5,238.5C 606.533,239.716 598.533,240.716 590.5,241.5C 585.959,242.271 582.292,240.938 579.5,237.5C 579.672,236.508 579.338,235.842 578.5,235.5C 577.537,232.256 576.204,229.256 574.5,226.5C 570.564,211.811 570.564,197.144 574.5,182.5C 576.008,180.819 577.008,178.819 577.5,176.5C 578.906,176.027 579.573,175.027 579.5,173.5C 580.906,173.027 581.573,172.027 581.5,170.5C 583.262,169.738 584.262,168.404 584.5,166.5C 586.5,165.833 587.833,164.5 588.5,162.5C 590.5,161.167 592.167,159.5 593.5,157.5C 594.5,157.167 595.167,156.5 595.5,155.5C 598.455,153.878 601.122,151.878 603.5,149.5C 604.167,149.5 604.5,149.167 604.5,148.5C 607.117,147.214 609.45,145.547 611.5,143.5C 613.027,143.573 614.027,142.906 614.5,141.5C 615.167,141.5 615.5,141.167 615.5,140.5C 617.027,140.573 618.027,139.906 618.5,138.5C 619.167,138.5 619.5,138.167 619.5,137.5C 621.027,137.573 622.027,136.906 622.5,135.5C 623.167,135.5 623.5,135.167 623.5,134.5C 625.027,134.573 626.027,133.906 626.5,132.5C 628.5,131.167 630.167,129.5 631.5,127.5C 633.587,126.415 634.92,124.749 635.5,122.5C 637.822,121.198 639.155,119.198 639.5,116.5C 642.527,112.763 644.193,108.43 644.5,103.5C 648.63,86.9603 646.13,71.2937 637,56.5C 636.292,55.6195 635.458,54.9528 634.5,54.5C 633.581,51.9108 631.914,49.9108 629.5,48.5 Z"/></g>
<g><path style="opacity:1" fill="#9b8f8e" d="M 632.5,47.5 C 634.027,47.427 635.027,48.0937 635.5,49.5C 633.973,49.573 632.973,48.9063 632.5,47.5 Z"/></g>
<g><path style="opacity:1" fill="#9b8f8e" d="M 106.5,48.5 C 105.341,50.2503 103.674,51.2503 101.5,51.5C 102.659,49.7497 104.326,48.7497 106.5,48.5 Z"/></g>
<g><path style="opacity:1" fill="#9b8f8e" d="M 236.5,48.5 C 238.404,48.7376 239.738,49.7376 240.5,51.5C 238.596,51.2624 237.262,50.2624 236.5,48.5 Z"/></g>
<g><path style="opacity:1" fill="#9b8f8e" d="M 523.5,48.5 C 522.341,50.2503 520.674,51.2503 518.5,51.5C 519.659,49.7497 521.326,48.7497 523.5,48.5 Z"/></g>
<g><path style="opacity:1" fill="#9b8f8e" d="M 654.5,48.5 C 656.404,48.7376 657.738,49.7376 658.5,51.5C 656.596,51.2624 655.262,50.2624 654.5,48.5 Z"/></g>
<g><path style="opacity:1" fill="#938786" d="M 629.5,48.5 C 631.914,49.9108 633.581,51.9108 634.5,54.5C 632.086,53.0892 630.419,51.0892 629.5,48.5 Z"/></g>
<g><path style="opacity:1" fill="#9b8f8e" d="M 635.5,49.5 C 639.049,50.7232 642.049,52.7232 644.5,55.5C 640.975,54.2411 637.975,52.2411 635.5,49.5 Z"/></g>
<g><path style="opacity:1" fill="#9b8f8e" d="M 101.5,51.5 C 100.738,53.2624 99.4044,54.2624 97.5,54.5C 98.2623,52.7376 99.5956,51.7376 101.5,51.5 Z"/></g>
<g><path style="opacity:1" fill="#9b8f8e" d="M 240.5,51.5 C 246.833,55.8333 252.167,61.1667 256.5,67.5C 250.833,62.5 245.5,57.1667 240.5,51.5 Z"/></g>
<g><path style="opacity:1" fill="#9b8f8e" d="M 658.5,51.5 C 661.089,52.4194 663.089,54.086 664.5,56.5C 661.911,55.5806 659.911,53.914 658.5,51.5 Z"/></g>
<g><path style="opacity:1" fill="#9b8f8e" d="M 1060.5,51.5 C 1063.43,52.7573 1065.76,54.7573 1067.5,57.5C 1064.57,56.2427 1062.24,54.2427 1060.5,51.5 Z"/></g>
<g><path style="opacity:1" fill="#9b8f8e" d="M 222.5,52.5 C 224.027,52.427 225.027,53.0937 225.5,54.5C 223.973,54.573 222.973,53.9063 222.5,52.5 Z"/></g>
<g><path style="opacity:1" fill="#9b8f8e" d="M 517.5,52.5 C 517.027,53.9063 516.027,54.573 514.5,54.5C 514.973,53.0937 515.973,52.427 517.5,52.5 Z"/></g>
<g><path style="opacity:1" fill="#9b8f8e" d="M 1043.5,52.5 C 1046.37,53.4333 1048.7,55.1 1050.5,57.5C 1047.63,56.5667 1045.3,54.9 1043.5,52.5 Z"/></g>
<g><path style="opacity:1" fill="#9b8f8e" d="M 899.5,53.5 C 897.167,56.5 894.5,59.1667 891.5,61.5C 893.167,57.8333 895.833,55.1667 899.5,53.5 Z"/></g>
<g><path style="opacity:1" fill="#9b8f8e" d="M 97.5,54.5 C 97.0269,55.9063 96.0269,56.573 94.5,56.5C 94.9731,55.0937 95.9731,54.427 97.5,54.5 Z"/></g>
<g><path style="opacity:1" fill="#9b8f8e" d="M 225.5,54.5 C 227.404,54.7376 228.738,55.7376 229.5,57.5C 227.596,57.2624 226.262,56.2624 225.5,54.5 Z"/></g>
<g><path style="opacity:1" fill="#9b8f8e" d="M 514.5,54.5 C 513.415,56.5869 511.749,57.9202 509.5,58.5C 510.585,56.4131 512.251,55.0798 514.5,54.5 Z"/></g>
<g><path style="opacity:1" fill="#8d8280" d="M 617.5,51.5 C 620.652,52.7791 622.652,55.1125 623.5,58.5C 621.273,56.3932 619.273,54.0599 617.5,51.5 Z"/></g>
<g><path style="opacity:1" fill="#9b8f8e" d="M 634.5,54.5 C 635.458,54.9528 636.292,55.6195 637,56.5C 646.13,71.2937 648.63,86.9603 644.5,103.5C 645.951,94.8011 645.785,86.1344 644,77.5C 641.892,69.3308 638.726,61.6642 634.5,54.5 Z"/></g>
<g><path style="opacity:1" fill="#9b8f8e" d="M 644.5,55.5 C 646.404,55.7376 647.738,56.7376 648.5,58.5C 646.596,58.2624 645.262,57.2624 644.5,55.5 Z"/></g>
<g><path style="opacity:1" fill="#9b8f8e" d="M 229.5,57.5 C 231.749,58.0798 233.415,59.4131 234.5,61.5C 232.251,60.9202 230.585,59.5869 229.5,57.5 Z"/></g>
<g><path style="opacity:1" fill="#7b736e" d="M 664.5,56.5 C 670.278,60.9396 674.945,66.2729 678.5,72.5C 676.454,70.7211 674.287,69.0544 672,67.5C 669.653,63.6665 667.153,59.9998 664.5,56.5 Z"/></g>
<g><path style="opacity:1" fill="#7c756f" d="M 83.5,49.5 C 77.8333,56.5 71.5,62.8333 64.5,68.5C 69.8333,61.1667 76.1667,54.8333 83.5,49.5 Z"/></g>
<g><path style="opacity:1" fill="#9b8f8e" d="M 648.5,58.5 C 651.089,59.4194 653.089,61.086 654.5,63.5C 651.911,62.5806 649.911,60.914 648.5,58.5 Z"/></g>
<g><path style="opacity:1" fill="#9b8f8e" d="M 1051.5,58.5 C 1056.83,61.8333 1061.17,66.1667 1064.5,71.5C 1059.83,67.5 1055.5,63.1667 1051.5,58.5 Z"/></g>
<g><path style="opacity:1" fill="#918684" d="M 502.5,48.5 C 496.833,54.8333 490.833,60.8333 484.5,66.5C 489.5,59.5 495.5,53.5 502.5,48.5 Z"/></g>
<g><path style="opacity:1" fill="#9b8f8e" d="M 508.5,59.5 C 505.167,63.5 501.5,67.1667 497.5,70.5C 500.167,65.8333 503.833,62.1667 508.5,59.5 Z"/></g>
<g><path style="opacity:1" fill="#9a8d8d" d="M 623.5,58.5 C 625.776,60.3306 627.609,62.6639 629,65.5C 634.01,75.9821 635.676,86.9821 634,98.5C 633.495,101.865 632.328,104.865 630.5,107.5C 635.811,90.0603 633.478,73.727 623.5,58.5 Z"/></g>
<g><path style="opacity:1" fill="#9b8f8e" d="M 911.5,59.5 C 910.415,61.5869 908.749,62.9202 906.5,63.5C 907.585,61.4131 909.251,60.0798 911.5,59.5 Z"/></g>
<g><path style="opacity:1" fill="#908583" d="M 93.5,57.5 C 88.5261,62.1387 83.5261,66.8053 78.5,71.5C 81.2615,67.5609 84.2615,63.7276 87.5,60C 89.6284,59.3448 91.6284,58.5114 93.5,57.5 Z"/></g>
<g><path style="opacity:1" fill="#978a89" d="M 234.5,61.5 C 238.833,63.8333 242.167,67.1667 244.5,71.5C 240.833,68.5 237.5,65.1667 234.5,61.5 Z"/></g>
<g><path style="opacity:1" fill="#9b8f8e" d="M 484.5,66.5 C 483.92,68.7488 482.587,70.4154 480.5,71.5C 481.08,69.2512 482.413,67.5846 484.5,66.5 Z"/></g>
<g><path style="opacity:1" fill="#9b8f8e" d="M 902.5,67.5 C 901.92,69.7488 900.587,71.4154 898.5,72.5C 899.08,70.2512 900.413,68.5846 902.5,67.5 Z"/></g>
<g><path style="opacity:1" fill="#9b8f8e" d="M 64.5,68.5 C 64.2624,70.4044 63.2624,71.7377 61.5,72.5C 61.7376,70.5956 62.7376,69.2623 64.5,68.5 Z"/></g>
<g><path style="opacity:1" fill="#9b8f8e" d="M 257.5,68.5 C 259.262,69.2623 260.262,70.5956 260.5,72.5C 258.738,71.7377 257.738,70.4044 257.5,68.5 Z"/></g>
<g><path style="opacity:1" fill="#9b8f8e" d="M 202.5,80.5 C 203.141,79.5178 203.807,78.5178 204.5,77.5C 203.018,75.5171 201.351,73.6837 199.5,72C 197.311,71.678 195.311,72.178 193.5,73.5C 194.29,72.2058 195.29,71.0391 196.5,70C 200.696,70.9885 204.03,73.4885 206.5,77.5C 205.717,79.2882 204.384,80.2882 202.5,80.5 Z"/></g>
<g><path style="opacity:1" fill="#938786" d="M 658.5,67.5 C 659.496,67.4142 660.329,67.7476 661,68.5C 663.41,71.3968 665.577,74.3968 667.5,77.5C 663.788,74.7891 660.788,71.4558 658.5,67.5 Z"/></g>
<g><path style="opacity:1" fill="#9b8f8e" d="M 130.5,72.5 C 129.504,72.5858 128.671,72.2524 128,71.5C 126,73.5 124,75.5 122,77.5C 121.7,79.0657 122.2,80.399 123.5,81.5C 121.983,81.4894 120.816,80.8228 120,79.5C 121.237,76.224 123.403,73.3906 126.5,71C 128.352,70.2274 129.686,70.7274 130.5,72.5 Z"/></g>
<g><path style="opacity:1" fill="#9b8f8e" d="M 244.5,71.5 C 247.471,73.4426 249.471,76.1092 250.5,79.5C 248.016,77.1997 246.016,74.5331 244.5,71.5 Z"/></g>
<g><path style="opacity:1" fill="#9b8f8e" d="M 480.5,71.5 C 480.573,73.0269 479.906,74.0269 478.5,74.5C 478.427,72.9731 479.094,71.9731 480.5,71.5 Z"/></g>
<g><path style="opacity:1" fill="#9b8f8e" d="M 496.5,71.5 C 495.581,74.0892 493.914,76.0892 491.5,77.5C 492.419,74.9108 494.086,72.9108 496.5,71.5 Z"/></g>
<g><path style="opacity:1" fill="#9b8f8e" d="M 61.5,72.5 C 61.573,74.0269 60.9063,75.0269 59.5,75.5C 59.427,73.9731 60.0937,72.9731 61.5,72.5 Z"/></g>
<g><path style="opacity:1" fill="#9b8f8e" d="M 77.5,72.5 C 76.9202,74.7488 75.5869,76.4154 73.5,77.5C 74.0798,75.2512 75.4131,73.5846 77.5,72.5 Z"/></g>
<g><path style="opacity:1" fill="#9b8f8e" d="M 260.5,72.5 C 262.262,73.2623 263.262,74.5956 263.5,76.5C 261.738,75.7377 260.738,74.4044 260.5,72.5 Z"/></g>
<g><path style="opacity:1" fill="#9b8f8e" d="M 1065.5,72.5 C 1067.59,73.5846 1068.92,75.2512 1069.5,77.5C 1067.41,76.4154 1066.08,74.7488 1065.5,72.5 Z"/></g>
<g><path style="opacity:1" fill="#9b8f8e" d="M 193.5,73.5 C 192.089,75.914 190.089,77.5806 187.5,78.5C 188.911,76.086 190.911,74.4194 193.5,73.5 Z"/></g>
<g><path style="opacity:1" fill="#9b8f8e" d="M 679.5,73.5 C 680.906,73.9731 681.573,74.9731 681.5,76.5C 680.094,76.0269 679.427,75.0269 679.5,73.5 Z"/></g>
<g><path style="opacity:1" fill="#908583" d="M 130.5,72.5 C 133.432,73.7997 135.766,75.7997 137.5,78.5C 135.405,77.588 133.405,76.4213 131.5,75C 130.748,74.3292 130.414,73.4959 130.5,72.5 Z"/></g>
<g><path style="opacity:1" fill="#9b8f8e" d="M 478.5,74.5 C 477.331,77.5113 475.664,80.178 473.5,82.5C 474.169,79.1511 475.836,76.4844 478.5,74.5 Z"/></g>
<g><path style="opacity:1" fill="#9b8f8e" d="M 263.5,76.5 C 266.502,79.1612 268.502,82.4945 269.5,86.5C 267,83.5063 265,80.173 263.5,76.5 Z"/></g>
<g><path style="opacity:1" fill="#9b8f8e" d="M 681.5,76.5 C 682.906,76.9731 683.573,77.9731 683.5,79.5C 682.094,79.0269 681.427,78.0269 681.5,76.5 Z"/></g>
<g><path style="opacity:1" fill="#9b8f8e" d="M 491.5,77.5 C 491.573,79.0269 490.906,80.0269 489.5,80.5C 489.427,78.9731 490.094,77.9731 491.5,77.5 Z"/></g>
<g><path style="opacity:1" fill="#9b8f8e" d="M 667.5,77.5 C 670.277,79.9505 672.277,82.9505 673.5,86.5C 670.759,84.0246 668.759,81.0246 667.5,77.5 Z"/></g>
<g><path style="opacity:1" fill="#9b8f8e" d="M 72.5,78.5 C 71.6597,80.8525 70.3264,82.8525 68.5,84.5C 68.8449,81.8021 70.1782,79.8021 72.5,78.5 Z"/></g>
<g><path style="opacity:1" fill="#9b8f8e" d="M 187.5,78.5 C 186.415,80.5869 184.749,81.9202 182.5,82.5C 183.585,80.4131 185.251,79.0798 187.5,78.5 Z"/></g>
<g><path style="opacity:1" fill="#9b8f8e" d="M 250.5,79.5 C 252.262,80.2623 253.262,81.5956 253.5,83.5C 251.738,82.7377 250.738,81.4044 250.5,79.5 Z"/></g>
<g><path style="opacity:1" fill="#9b8f8e" d="M 589.5,81.5 C 579.399,79.1158 570.066,80.7824 561.5,86.5C 561.953,85.5416 562.619,84.7083 563.5,84C 571.973,79.2318 580.64,78.3985 589.5,81.5 Z"/></g>
<g><path style="opacity:1" fill="#9b8f8e" d="M 683.5,79.5 C 684.906,79.9731 685.573,80.9731 685.5,82.5C 684.094,82.0269 683.427,81.0269 683.5,79.5 Z"/></g>
<g><path style="opacity:1" fill="#8d8280" d="M 137.5,78.5 C 140.06,80.2733 142.393,82.2733 144.5,84.5C 141.112,83.6519 138.779,81.6519 137.5,78.5 Z"/></g>
<g><path style="opacity:1" fill="#938786" d="M 123.5,81.5 C 126.089,82.4194 128.089,84.086 129.5,86.5C 126.911,85.5806 124.911,83.914 123.5,81.5 Z"/></g>
<g><path style="opacity:1" fill="#9b8f8e" d="M 200.5,82.5 C 199.089,84.914 197.089,86.5806 194.5,87.5C 195.911,85.086 197.911,83.4194 200.5,82.5 Z"/></g>
<g><path style="opacity:1" fill="#9b8f8e" d="M 473.5,82.5 C 455.671,119.787 456.337,156.787 475.5,193.5C 464.192,175.78 458.858,156.28 459.5,135C 458.495,115.842 463.162,98.3424 473.5,82.5 Z"/></g>
<g><path style="opacity:1" fill="#9b8f8e" d="M 488.5,82.5 C 488.573,84.0269 487.906,85.0269 486.5,85.5C 486.427,83.9731 487.094,82.9731 488.5,82.5 Z"/></g>
<g><path style="opacity:1" fill="#9b8f8e" d="M 590.5,82.5 C 591.634,84.9664 591.801,87.633 591,90.5C 588.984,92.6082 586.817,92.9416 584.5,91.5C 586.722,91.822 588.556,91.1554 590,89.5C 590.497,87.1902 590.663,84.8568 590.5,82.5 Z"/></g>
<g><path style="opacity:1" fill="#9b8f8e" d="M 685.5,82.5 C 687.588,84.3356 688.921,86.6689 689.5,89.5C 687.412,87.6644 686.079,85.3311 685.5,82.5 Z"/></g>
<g><path style="opacity:1" fill="#9b8f8e" d="M 253.5,83.5 C 254.906,83.9731 255.573,84.9731 255.5,86.5C 254.094,86.0269 253.427,85.0269 253.5,83.5 Z"/></g>
<g><path style="opacity:1" fill="#9b8f8e" d="M 68.5,84.5 C 67.9213,87.3311 66.588,89.6644 64.5,91.5C 65.0787,88.6689 66.412,86.3356 68.5,84.5 Z"/></g>
<g><path style="opacity:1" fill="#9b8f8e" d="M 180.5,84.5 C 179.415,86.5869 177.749,87.9202 175.5,88.5C 176.585,86.4131 178.251,85.0798 180.5,84.5 Z"/></g>
<g><path style="opacity:1" fill="#7d7670" d="M 144.5,84.5 C 147.207,86.8432 149.874,89.1765 152.5,91.5C 148.587,90.5501 145.92,88.2167 144.5,84.5 Z"/></g>
<g><path style="opacity:1" fill="#9b8f8e" d="M 255.5,86.5 C 259.54,91.9142 262.54,97.9142 264.5,104.5C 260.992,98.8177 257.992,92.8177 255.5,86.5 Z"/></g>
<g><path style="opacity:1" fill="#9b8f8e" d="M 269.5,86.5 C 274.097,92.3664 277.097,99.0331 278.5,106.5C 275.538,99.9019 272.538,93.2352 269.5,86.5 Z"/></g>
<g><path style="opacity:1" fill="#9b8f8e" d="M 673.5,86.5 C 674.906,86.9731 675.573,87.9731 675.5,89.5C 674.094,89.0269 673.427,88.0269 673.5,86.5 Z"/></g>
<g><path style="opacity:1" fill="#9b8f8e" d="M 1089.5,86.5 C 1091.87,88.5792 1093.21,91.2459 1093.5,94.5C 1091.66,92.1515 1090.33,89.4848 1089.5,86.5 Z"/></g>
<g><path style="opacity:1" fill="#9b8f8e" d="M 194.5,87.5 C 193.738,89.2624 192.404,90.2624 190.5,90.5C 191.262,88.7376 192.596,87.7376 194.5,87.5 Z"/></g>
<g><path style="opacity:1" fill="#9b8f8e" d="M 485.5,87.5 C 484.341,91.1513 482.674,94.4846 480.5,97.5C 481.127,93.5799 482.793,90.2466 485.5,87.5 Z"/></g>
<g><path style="opacity:1" fill="#9b8f8e" d="M 560.5,87.5 C 559.833,88.8333 558.833,89.8333 557.5,90.5C 557.5,88.5 558.5,87.5 560.5,87.5 Z"/></g>
<g><path style="opacity:1" fill="#7f7772" d="M 59.5,75.5 C 55.8249,82.2218 52.1582,88.8885 48.5,95.5C 50.628,87.9044 54.2947,81.2377 59.5,75.5 Z"/></g>
<g><path style="opacity:1" fill="#9b8f8e" d="M 174.5,89.5 C 173.521,91.1454 172.188,92.4787 170.5,93.5C 169.702,93.0431 169.369,92.3764 169.5,91.5C 171.167,90.8333 172.833,90.1667 174.5,89.5 Z"/></g>
<g><path style="opacity:1" fill="#9b8f8e" d="M 675.5,89.5 C 680.097,95.3664 683.097,102.033 684.5,109.5C 681.538,102.902 678.538,96.2352 675.5,89.5 Z"/></g>
<g><path style="opacity:1" fill="#9b8f8e" d="M 689.5,89.5 C 691.674,92.5154 693.341,95.8487 694.5,99.5C 691.793,96.7534 690.127,93.4201 689.5,89.5 Z"/></g>
<g><path style="opacity:1" fill="#8e8381" d="M 129.5,86.5 C 133.436,88.7657 136.769,91.7657 139.5,95.5C 135.564,93.2343 132.231,90.2343 129.5,86.5 Z"/></g>
<g><path style="opacity:1" fill="#9b8f8e" d="M 190.5,90.5 C 189.415,92.5869 187.749,93.9202 185.5,94.5C 186.585,92.4131 188.251,91.0798 190.5,90.5 Z"/></g>
<g><path style="opacity:1" fill="#9b8f8e" d="M 64.5,91.5 C 63.3973,95.497 61.7306,99.1637 59.5,102.5C 59.8457,98.1476 61.5124,94.4809 64.5,91.5 Z"/></g>
<g><path style="opacity:1" fill="#9b8f8e" d="M 556.5,91.5 C 556.573,93.0269 555.906,94.0269 554.5,94.5C 554.427,92.9731 555.094,91.9731 556.5,91.5 Z"/></g>
<g><path style="opacity:1" fill="#9b8f8e" d="M 871.5,91.5 C 861.924,116.171 859.924,141.504 865.5,167.5C 863.577,162.801 862.41,157.801 862,152.5C 860.394,135.899 861.728,119.566 866,103.5C 867.061,99.0505 868.895,95.0505 871.5,91.5 Z"/></g>
<g><path style="opacity:1" fill="#9b8f8e" d="M 571.5,93.5 C 571.027,94.9063 570.027,95.573 568.5,95.5C 568.973,94.0937 569.973,93.427 571.5,93.5 Z"/></g>
<g><path style="opacity:1" fill="#9b8f8e" d="M 554.5,94.5 C 549.126,105.649 549.46,116.649 555.5,127.5C 553.864,126.251 552.697,124.584 552,122.5C 549.299,115.264 548.965,107.93 551,100.5C 551.424,97.9746 552.59,95.9746 554.5,94.5 Z"/></g>
<g><path style="opacity:1" fill="#9b8f8e" d="M 48.5,95.5 C 37.2999,126.429 37.9666,157.096 50.5,187.5C 42.5841,172.772 38.9174,156.938 39.5,140C 39.0125,126.064 41.1791,112.564 46,99.5C 46.6082,97.9336 47.4415,96.6002 48.5,95.5 Z"/></g>
<g><path style="opacity:1" fill="#9b8f8e" d="M 184.5,95.5 C 183.415,97.5869 181.749,98.9202 179.5,99.5C 180.585,97.4131 182.251,96.0798 184.5,95.5 Z"/></g>
<g><path style="opacity:1" fill="#918684" d="M 139.5,95.5 C 141.749,96.0798 143.415,97.4131 144.5,99.5C 142.251,98.9202 140.585,97.5869 139.5,95.5 Z"/></g>
<g><path style="opacity:1" fill="#9b8f8e" d="M 565.5,98.5 C 565.573,100.027 564.906,101.027 563.5,101.5C 563.427,99.9731 564.094,98.9731 565.5,98.5 Z"/></g>
<g><path style="opacity:1" fill="#9b8f8e" d="M 1095.5,98.5 C 1097.6,101.797 1098.93,105.463 1099.5,109.5C 1097.4,106.203 1096.07,102.537 1095.5,98.5 Z"/></g>
<g><path style="opacity:1" fill="#9b8f8e" d="M 179.5,99.5 C 178.738,101.262 177.404,102.262 175.5,102.5C 176.262,100.738 177.596,99.7376 179.5,99.5 Z"/></g>
<g><path style="opacity:1" fill="#9b8f8e" d="M 1014.5,100.5 C 1017.98,99.3567 1021.64,99.1901 1025.5,100C 1026.94,100.377 1027.94,101.21 1028.5,102.5C 1024.03,100.784 1019.36,100.118 1014.5,100.5 Z"/></g>
<g><path style="opacity:1" fill="#7d7570" d="M 108.5,100.5 C 104.453,100.535 101.786,102.535 100.5,106.5C 103.522,109.853 106.522,113.187 109.5,116.5C 105.053,113.887 101.386,110.387 98.5,106C 100.112,103.384 102.112,101.05 104.5,99C 106.352,98.2274 107.686,98.7274 108.5,100.5 Z"/></g>
<g><path style="opacity:1" fill="#9b8f8e" d="M 145.5,100.5 C 147.404,100.738 148.738,101.738 149.5,103.5C 147.596,103.262 146.262,102.262 145.5,100.5 Z"/></g>
<g><path style="opacity:1" fill="#9b8f8e" d="M 1014.5,100.5 C 1012.5,102.671 1010.67,105.004 1009,107.5C 1008.46,110.868 1008.62,114.201 1009.5,117.5C 1006.38,114.202 1005.88,110.535 1008,106.5C 1009.41,103.591 1011.57,101.591 1014.5,100.5 Z"/></g>
<g><path style="opacity:1" fill="#555448" d="M 1014.5,100.5 C 1019.36,100.118 1024.03,100.784 1028.5,102.5C 1029.17,102.5 1029.5,102.833 1029.5,103.5C 1030.88,105.96 1031.88,108.626 1032.5,111.5C 1031.83,113.851 1031.16,116.184 1030.5,118.5C 1024.93,124.103 1018.6,124.936 1011.5,121C 1010.18,120.184 1009.51,119.017 1009.5,117.5C 1008.62,114.201 1008.46,110.868 1009,107.5C 1010.67,105.004 1012.5,102.671 1014.5,100.5 Z"/></g>
<g><path style="opacity:1" fill="#7a736c" d="M 225.5,108.5 C 227.215,104.256 225.882,101.256 221.5,99.5C 215.13,104.216 208.797,108.882 202.5,113.5C 206.938,109.564 211.271,105.398 215.5,101C 217.394,99.5962 219.394,98.4295 221.5,97.5C 224.757,99.0858 227.424,101.419 229.5,104.5C 228.479,106.188 227.145,107.521 225.5,108.5 Z"/></g>
<g><path style="opacity:1" fill="#9b8f8e" d="M 563.5,101.5 C 562.995,104.521 562.328,107.521 561.5,110.5C 562.125,114.302 563.125,117.968 564.5,121.5C 563.21,120.942 562.377,119.942 562,118.5C 559.636,112.445 560.136,106.778 563.5,101.5 Z"/></g>
<g><path style="opacity:1" fill="#9b8f8e" d="M 59.5,102.5 C 51.609,126.814 51.609,151.147 59.5,175.5C 57.338,171.86 55.838,167.86 55,163.5C 52.1813,148.55 51.848,133.55 54,118.5C 54.9682,112.759 56.8016,107.425 59.5,102.5 Z"/></g>
<g><path style="opacity:1" fill="#928785" d="M 108.5,100.5 C 112.12,102.453 115.12,105.119 117.5,108.5C 114.732,106.913 112.065,105.08 109.5,103C 108.748,102.329 108.414,101.496 108.5,100.5 Z"/></g>
<g><path style="opacity:1" fill="#9b8f8e" d="M 695.5,102.5 C 697.41,105.452 698.41,108.786 698.5,112.5C 696.899,109.45 695.899,106.116 695.5,102.5 Z"/></g>
<g><path style="opacity:1" fill="#7a736d" d="M 149.5,103.5 C 152.5,104.5 154.5,106.5 155.5,109.5C 153.167,107.833 151.167,105.833 149.5,103.5 Z"/></g>
<g><path style="opacity:1" fill="#9b8f8e" d="M 644.5,103.5 C 644.193,108.43 642.527,112.763 639.5,116.5C 640.925,111.999 642.591,107.666 644.5,103.5 Z"/></g>
<g><path style="opacity:1" fill="#9b8f8e" d="M 1029.5,103.5 C 1032.15,105.398 1033.48,108.065 1033.5,111.5C 1033.45,114.36 1032.45,116.693 1030.5,118.5C 1031.16,116.184 1031.83,113.851 1032.5,111.5C 1031.88,108.626 1030.88,105.96 1029.5,103.5 Z"/></g>
<g><path style="opacity:1" fill="#9b8f8e" d="M 264.5,104.5 C 267.94,110.993 270.106,117.993 271,125.5C 275.398,147.985 271.898,168.985 260.5,188.5C 264.016,180.789 266.849,172.789 269,164.5C 272.827,144.106 271.327,124.106 264.5,104.5 Z"/></g>
<g><path style="opacity:1" fill="#9b8f8e" d="M 477.5,105.5 C 477.277,109.162 476.277,112.495 474.5,115.5C 474.59,111.786 475.59,108.452 477.5,105.5 Z"/></g>
<g><path style="opacity:1" fill="#726d65" d="M 172.5,105.5 C 171.199,106.882 170.366,108.548 170,110.5C 169.268,118.189 169.435,125.856 170.5,133.5C 170.64,135.03 171.307,136.03 172.5,136.5C 171.713,138.104 170.38,138.771 168.5,138.5C 168.168,127.813 168.501,117.146 169.5,106.5C 170.417,105.873 171.417,105.539 172.5,105.5 Z"/></g>
<g><path style="opacity:1" fill="#9b8f8e" d="M 278.5,106.5 C 288.138,132.892 287.638,159.225 277,185.5C 274.646,190.887 271.812,195.887 268.5,200.5C 277.466,183.936 282.799,166.269 284.5,147.5C 283.946,133.821 281.946,120.154 278.5,106.5 Z"/></g>
<g><path style="opacity:1" fill="#9b8f8e" d="M 630.5,107.5 C 630.539,110.089 629.539,112.089 627.5,113.5C 627.992,111.181 628.992,109.181 630.5,107.5 Z"/></g>
<g><path style="opacity:1" fill="#9b8f8e" d="M 1085.5,107.5 C 1087.9,112.112 1089.24,117.112 1089.5,122.5C 1087.67,117.739 1086.34,112.739 1085.5,107.5 Z"/></g>
<g><path style="opacity:1" fill="#9b8f8e" d="M 878.5,108.5 C 877.989,114.049 876.989,119.383 875.5,124.5C 875.496,118.858 876.496,113.525 878.5,108.5 Z"/></g>
<g><path style="opacity:1" fill="#9b8f8e" d="M 118.5,109.5 C 121.764,111.094 124.431,113.427 126.5,116.5C 123.236,114.906 120.569,112.573 118.5,109.5 Z"/></g>
<g><path style="opacity:1" fill="#9b8f8e" d="M 224.5,109.5 C 223.738,111.262 222.404,112.262 220.5,112.5C 221.262,110.738 222.596,109.738 224.5,109.5 Z"/></g>
<g><path style="opacity:1" fill="#9b8f8e" d="M 1099.5,109.5 C 1103.39,120.368 1105.05,131.702 1104.5,143.5C 1104.33,148.5 1104.17,153.5 1104,158.5C 1103.43,164.549 1101.93,170.216 1099.5,175.5C 1104.79,153.511 1104.79,131.511 1099.5,109.5 Z"/></g>
<g><path style="opacity:1" fill="#887e7b" d="M 684.5,109.5 C 686.344,111.279 687.01,113.612 686.5,116.5C 685.388,114.401 684.721,112.067 684.5,109.5 Z"/></g>
<g><path style="opacity:1" fill="#9b8f8e" d="M 627.5,113.5 C 626.306,117.363 623.973,120.363 620.5,122.5C 622.458,119.208 624.791,116.208 627.5,113.5 Z"/></g>
<g><path style="opacity:1" fill="#9b8f8e" d="M 218.5,114.5 C 216.431,117.573 213.764,119.906 210.5,121.5C 212.569,118.427 215.236,116.094 218.5,114.5 Z"/></g>
<g><path style="opacity:1" fill="#9b8f8e" d="M 200.5,115.5 C 199.738,117.262 198.404,118.262 196.5,118.5C 197.262,116.738 198.596,115.738 200.5,115.5 Z"/></g>
<g><path style="opacity:1" fill="#9b8f8e" d="M 474.5,115.5 C 472.021,135.215 473.688,154.549 479.5,173.5C 476.113,165.962 473.946,157.962 473,149.5C 472.333,140.167 472.333,130.833 473,121.5C 473.191,119.292 473.691,117.292 474.5,115.5 Z"/></g>
<g><path style="opacity:1" fill="#9b8f8e" d="M 639.5,116.5 C 639.155,119.198 637.822,121.198 635.5,122.5C 636.34,120.147 637.674,118.147 639.5,116.5 Z"/></g>
<g><path style="opacity:1" fill="#9b8f8e" d="M 686.5,116.5 C 688.023,120.596 689.023,124.929 689.5,129.5C 690.392,136.791 690.726,144.124 690.5,151.5C 689.304,165.283 685.471,178.283 679,190.5C 678.051,192.093 676.885,193.426 675.5,194.5C 689.356,170.02 693.023,144.02 686.5,116.5 Z"/></g>
<g><path style="opacity:1" fill="#6c675f" d="M 698.5,112.5 C 699.768,114.905 700.435,117.572 700.5,120.5C 700.5,121.833 700.5,123.167 700.5,124.5C 698.75,120.817 698.083,116.817 698.5,112.5 Z"/></g>
<g><path style="opacity:1" fill="#8e8381" d="M 109.5,116.5 C 112.089,117.419 114.089,119.086 115.5,121.5C 112.911,120.581 110.911,118.914 109.5,116.5 Z"/></g>
<g><path style="opacity:1" fill="#7b746e" d="M 126.5,116.5 C 130.482,119.152 134.149,122.152 137.5,125.5C 136.078,125.291 134.745,124.791 133.5,124C 130.572,121.911 128.239,119.411 126.5,116.5 Z"/></g>
<g><path style="opacity:1" fill="#9b8f8e" d="M 700.5,120.5 C 701.856,123.577 702.689,126.91 703,130.5C 703.667,140.167 703.667,149.833 703,159.5C 702.465,163.038 701.632,166.372 700.5,169.5C 700.5,168.167 700.5,166.833 700.5,165.5C 703.167,151.833 703.167,138.167 700.5,124.5C 700.5,123.167 700.5,121.833 700.5,120.5 Z"/></g>
<g><path style="opacity:1" fill="#9b8f8e" d="M 209.5,122.5 C 207.748,124.246 206.415,126.246 205.5,128.5C 203.972,128.483 203.472,127.816 204,126.5C 205.451,124.536 207.284,123.203 209.5,122.5 Z"/></g>
<g><path style="opacity:1" fill="#9b8f8e" d="M 620.5,122.5 C 619.738,124.262 618.404,125.262 616.5,125.5C 617.262,123.738 618.596,122.738 620.5,122.5 Z"/></g>
<g><path style="opacity:1" fill="#9b8f8e" d="M 635.5,122.5 C 634.92,124.749 633.587,126.415 631.5,127.5C 632.08,125.251 633.413,123.585 635.5,122.5 Z"/></g>
<g><path style="opacity:1" fill="#958988" d="M 115.5,121.5 C 118.407,122.734 120.741,124.734 122.5,127.5C 119.726,130.22 116.393,131.887 112.5,132.5C 115.102,130.858 117.769,129.192 120.5,127.5C 118.81,125.481 117.144,123.481 115.5,121.5 Z"/></g>
<g><path style="opacity:1" fill="#7c756f" d="M 564.5,121.5 C 567.167,124.833 570.167,127.833 573.5,130.5C 568.797,129.13 565.797,126.13 564.5,121.5 Z"/></g>
<g><path style="opacity:1" fill="#9b8f8e" d="M 616.5,125.5 C 613.6,128.786 609.933,130.786 605.5,131.5C 608.999,129.25 612.665,127.25 616.5,125.5 Z"/></g>
<g><path style="opacity:1" fill="#918684" d="M 137.5,125.5 C 139.754,126.124 141.421,127.457 142.5,129.5C 140.205,128.864 138.539,127.531 137.5,125.5 Z"/></g>
<g><path style="opacity:1" fill="#767069" d="M 195.5,119.5 C 192.727,122.721 189.727,125.721 186.5,128.5C 185.264,129.246 183.93,129.579 182.5,129.5C 186.284,125.443 190.617,122.109 195.5,119.5 Z"/></g>
<g><path style="opacity:1" fill="#9b8f8e" d="M 555.5,127.5 C 558.138,130.474 560.805,133.474 563.5,136.5C 559.435,134.767 556.768,131.767 555.5,127.5 Z"/></g>
<g><path style="opacity:1" fill="#9b8f8e" d="M 1032.5,231.5 C 1031.48,232.954 1030.31,233.287 1029,232.5C 1028.67,198.5 1028.33,164.5 1028,130.5C 1023.26,129.531 1018.43,129.197 1013.5,129.5C 1013.01,165.794 1013.01,201.628 1013.5,237C 1012.96,237.717 1012.29,238.217 1011.5,238.5C 1011.17,202.124 1011.51,165.79 1012.5,129.5C 1018.05,128.194 1023.55,128.194 1029,129.5C 1029.5,163.498 1029.67,197.498 1029.5,231.5C 1030.5,231.5 1031.5,231.5 1032.5,231.5 Z"/></g>
<g><path style="opacity:1" fill="#9b8f8e" d="M 182.5,129.5 C 182.027,130.906 181.027,131.573 179.5,131.5C 179.973,130.094 180.973,129.427 182.5,129.5 Z"/></g>
<g><path style="opacity:1" fill="#505143" d="M 689.5,129.5 C 690.222,129.918 690.722,130.584 691,131.5C 691.821,138.346 691.654,145.013 690.5,151.5C 690.726,144.124 690.392,136.791 689.5,129.5 Z"/></g>
<g><path style="opacity:1" fill="#9b8f8e" d="M 178.5,132.5 C 178.027,133.906 177.027,134.573 175.5,134.5C 175.973,133.094 176.973,132.427 178.5,132.5 Z"/></g>
<g><path style="opacity:1" fill="#9b8f8e" d="M 626.5,132.5 C 626.027,133.906 625.027,134.573 623.5,134.5C 623.973,133.094 624.973,132.427 626.5,132.5 Z"/></g>
<g><path style="opacity:1" fill="#8f8482" d="M 112.5,132.5 C 112.38,133.586 111.713,134.253 110.5,134.5C 108.238,135.467 105.905,136.134 103.5,136.5C 106.088,134.408 109.088,133.075 112.5,132.5 Z"/></g>
<g><path style="opacity:1" fill="#78726b" d="M 145.5,131.5 C 148.135,132.811 150.469,134.478 152.5,136.5C 149.166,136.019 146.833,134.353 145.5,131.5 Z"/></g>
<g><path style="opacity:1" fill="#9b8f8e" d="M 215.5,133.5 C 217.553,133.402 219.22,134.069 220.5,135.5C 218.447,135.598 216.78,134.931 215.5,133.5 Z"/></g>
<g><path style="opacity:1" fill="#8d8380" d="M 577.5,132.5 C 586.116,134.525 594.782,134.525 603.5,132.5C 603.389,133.117 603.056,133.617 602.5,134C 594.479,135.672 586.479,135.672 578.5,134C 577.944,133.617 577.611,133.117 577.5,132.5 Z"/></g>
<g><path style="opacity:1" fill="#9b8f8e" d="M 155.5,134.5 C 155.762,135.978 155.429,137.311 154.5,138.5C 153.893,138.376 153.56,138.043 153.5,137.5C 154.167,136.5 154.833,135.5 155.5,134.5 Z"/></g>
<g><path style="opacity:1" fill="#9b8f8e" d="M 175.5,134.5 C 175.027,135.906 174.027,136.573 172.5,136.5C 172.973,135.094 173.973,134.427 175.5,134.5 Z"/></g>
<g><path style="opacity:1" fill="#9b8f8e" d="M 130.5,136.5 C 132.455,135.07 134.121,135.403 135.5,137.5C 133.883,136.962 132.216,136.629 130.5,136.5 Z"/></g>
<g><path style="opacity:1" fill="#9b8f8e" d="M 622.5,135.5 C 622.027,136.906 621.027,137.573 619.5,137.5C 619.973,136.094 620.973,135.427 622.5,135.5 Z"/></g>
<g><path style="opacity:1" fill="#9b8f8e" d="M 103.5,136.5 C 102.32,139.17 102.487,141.836 104,144.5C 104.71,145.973 105.876,146.64 107.5,146.5C 106.116,147.801 104.616,147.801 103,146.5C 102.551,143.868 101.717,141.368 100.5,139C 100.748,137.251 101.748,136.418 103.5,136.5 Z"/></g>
<g><path style="opacity:1" fill="#7b746e" d="M 196.5,136.5 C 195.127,136.343 193.793,136.51 192.5,137C 190.595,138.421 188.595,139.588 186.5,140.5C 188.712,136.21 192.045,134.876 196.5,136.5 Z"/></g>
<g><path style="opacity:1" fill="#9b8f8e" d="M 126.5,138.5 C 125.22,139.931 123.553,140.598 121.5,140.5C 122.78,139.069 124.447,138.402 126.5,138.5 Z"/></g>
<g><path style="opacity:1" fill="#8e8481" d="M 564.5,137.5 C 567.629,137.974 570.295,139.308 572.5,141.5C 569.246,141.206 566.579,139.873 564.5,137.5 Z"/></g>
<g><path style="opacity:1" fill="#9b8f8e" d="M 618.5,138.5 C 618.027,139.906 617.027,140.573 615.5,140.5C 615.973,139.094 616.973,138.427 618.5,138.5 Z"/></g>
<g><path style="opacity:1" fill="#9b8f8e" d="M 203.5,139.5 C 205.553,139.402 207.22,140.069 208.5,141.5C 206.447,141.598 204.78,140.931 203.5,139.5 Z"/></g>
<g><path style="opacity:1" fill="#908583" d="M 220.5,135.5 C 222.783,135.608 224.783,136.441 226.5,138C 225.273,140.736 224.273,143.569 223.5,146.5C 220.528,147.291 217.861,146.625 215.5,144.5C 222.62,147.214 225.12,144.881 223,137.5C 222.005,136.934 221.172,136.267 220.5,135.5 Z"/></g>
<g><path style="opacity:1" fill="#9b8f8e" d="M 614.5,141.5 C 614.027,142.906 613.027,143.573 611.5,143.5C 611.973,142.094 612.973,141.427 614.5,141.5 Z"/></g>
<g><path style="opacity:1" fill="#9b8f8e" d="M 182.5,143.5 C 182.027,144.906 181.027,145.573 179.5,145.5C 179.973,144.094 180.973,143.427 182.5,143.5 Z"/></g>
<g><path style="opacity:1" fill="#8c827f" d="M 572.5,141.5 C 578.644,142.195 584.644,143.529 590.5,145.5C 590.043,146.298 589.376,146.631 588.5,146.5C 583.112,145.045 577.778,143.378 572.5,141.5 Z"/></g>
<g><path style="opacity:1" fill="#9b8f8e" d="M 112.5,144.5 C 111.22,145.931 109.553,146.598 107.5,146.5C 108.78,145.069 110.447,144.402 112.5,144.5 Z"/></g>
<g><path style="opacity:1" fill="#79726c" d="M 611.5,143.5 C 609.45,145.547 607.117,147.214 604.5,148.5C 605.596,145.227 607.929,143.561 611.5,143.5 Z"/></g>
<g><path style="opacity:1" fill="#9b8f8e" d="M 175.5,148.5 C 175.027,149.906 174.027,150.573 172.5,150.5C 172.973,149.094 173.973,148.427 175.5,148.5 Z"/></g>
<g><path style="opacity:1" fill="#9b8f8e" d="M 586.5,148.5 C 582.167,153.5 577.5,158.167 572.5,162.5C 576.167,156.833 580.833,152.167 586.5,148.5 Z"/></g>
<g><path style="opacity:1" fill="#7f7771" d="M 603.5,149.5 C 601.122,151.878 598.455,153.878 595.5,155.5C 597.039,152.028 599.706,150.028 603.5,149.5 Z"/></g>
<g><path style="opacity:1" fill="#9b8f8e" d="M 875.5,151.5 C 876.861,156.304 877.861,161.304 878.5,166.5C 876.369,161.848 875.369,156.848 875.5,151.5 Z"/></g>
<g><path style="opacity:1" fill="#9b8f8e" d="M 169.5,152.5 C 169.5,182.833 169.5,213.167 169.5,243.5C 176.214,243.27 182.88,242.603 189.5,241.5C 182.845,243.979 175.845,244.979 168.5,244.5C 168.169,213.662 168.502,182.995 169.5,152.5 Z"/></g>
<g><path style="opacity:1" fill="#9b8f8e" d="M 593.5,157.5 C 592.167,159.5 590.5,161.167 588.5,162.5C 589.167,159.833 590.833,158.167 593.5,157.5 Z"/></g>
<g><path style="opacity:1" fill="#9b8f8e" d="M 572.5,162.5 C 572.262,164.404 571.262,165.738 569.5,166.5C 569.738,164.596 570.738,163.262 572.5,162.5 Z"/></g>
<g><path style="opacity:1" fill="#958988" d="M 153.5,150.5 C 154.496,150.414 155.329,150.748 156,151.5C 156.827,164.007 156.66,176.34 155.5,188.5C 155.308,177.767 155.308,167.101 155.5,156.5C 155.637,154.159 154.97,152.159 153.5,150.5 Z"/></g>
<g><path style="opacity:1" fill="#565549" d="M 959.5,169.5 C 962.369,175.07 962.035,180.403 958.5,185.5C 958.027,186.906 957.027,187.573 955.5,187.5C 952.236,188.324 948.902,188.658 945.5,188.5C 942.802,188.155 940.802,186.822 939.5,184.5C 937.857,180.7 937.19,176.7 937.5,172.5C 941.552,163.871 947.885,161.704 956.5,166C 957.71,167.039 958.71,168.206 959.5,169.5 Z"/></g>
<g><path style="opacity:1" fill="#9b8f8e" d="M 1089.5,164.5 C 1089.23,169.264 1087.9,173.597 1085.5,177.5C 1086.39,172.928 1087.72,168.595 1089.5,164.5 Z"/></g>
<g><path style="opacity:1" fill="#9b8f8e" d="M 569.5,166.5 C 568,170.173 566,173.506 563.5,176.5C 564.498,172.495 566.498,169.161 569.5,166.5 Z"/></g>
<g><path style="opacity:1" fill="#9b8f8e" d="M 584.5,166.5 C 584.262,168.404 583.262,169.738 581.5,170.5C 581.738,168.596 582.738,167.262 584.5,166.5 Z"/></g>
<g><path style="opacity:1" fill="#767069" d="M 700.5,165.5 C 700.5,166.833 700.5,168.167 700.5,169.5C 699.471,175.921 697.471,181.921 694.5,187.5C 696.228,179.965 698.228,172.632 700.5,165.5 Z"/></g>
<g><path style="opacity:1" fill="#9b8f8e" d="M 959.5,169.5 C 961.894,171.332 962.894,173.832 962.5,177C 962.885,180.727 961.552,183.56 958.5,185.5C 962.035,180.403 962.369,175.07 959.5,169.5 Z"/></g>
<g><path style="opacity:1" fill="#9b8f8e" d="M 581.5,170.5 C 581.573,172.027 580.906,173.027 579.5,173.5C 579.427,171.973 580.094,170.973 581.5,170.5 Z"/></g>
<g><path style="opacity:1" fill="#9b8f8e" d="M 866.5,170.5 C 868.601,173.797 869.935,177.463 870.5,181.5C 868.399,178.203 867.065,174.537 866.5,170.5 Z"/></g>
<g><path style="opacity:1" fill="#9b8f8e" d="M 937.5,172.5 C 937.19,176.7 937.857,180.7 939.5,184.5C 937.36,182.505 936.027,180.005 935.5,177C 936.099,175.378 936.766,173.878 937.5,172.5 Z"/></g>
<g><path style="opacity:1" fill="#9b8f8e" d="M 579.5,173.5 C 579.573,175.027 578.906,176.027 577.5,176.5C 577.427,174.973 578.094,173.973 579.5,173.5 Z"/></g>
<g><path style="opacity:1" fill="#9b8f8e" d="M 59.5,175.5 C 61.6246,178.088 62.9579,181.088 63.5,184.5C 61.3754,181.912 60.0421,178.912 59.5,175.5 Z"/></g>
<g><path style="opacity:1" fill="#918583" d="M 479.5,173.5 C 481.674,176.515 483.341,179.849 484.5,183.5C 481.769,180.705 480.102,177.372 479.5,173.5 Z"/></g>
<g><path style="opacity:1" fill="#9b8f8e" d="M 563.5,176.5 C 558.53,190.894 557.53,205.561 560.5,220.5C 557.213,210.105 556.713,199.438 559,188.5C 559.601,184.048 561.101,180.048 563.5,176.5 Z"/></g>
<g><path style="opacity:1" fill="#9b8f8e" d="M 1098.5,179.5 C 1098.27,182.542 1097.27,185.208 1095.5,187.5C 1095.73,184.458 1096.73,181.792 1098.5,179.5 Z"/></g>
<g><path style="opacity:1" fill="#9b8f8e" d="M 870.5,181.5 C 873.341,185.849 875.674,190.516 877.5,195.5C 874.126,191.419 871.793,186.753 870.5,181.5 Z"/></g>
<g><path style="opacity:1" fill="#9b8f8e" d="M 574.5,182.5 C 570.564,197.144 570.564,211.811 574.5,226.5C 571.142,219.33 569.808,211.663 570.5,203.5C 570.667,199.5 570.833,195.5 571,191.5C 571.505,188.135 572.672,185.135 574.5,182.5 Z"/></g>
<g><path style="opacity:1" fill="#9b8f8e" d="M 1083.5,182.5 C 1083.54,185.089 1082.54,187.089 1080.5,188.5C 1080.99,186.181 1081.99,184.181 1083.5,182.5 Z"/></g>
<g><path style="opacity:1" fill="#9b8f8e" d="M 50.5,187.5 C 52.341,189.849 53.6743,192.515 54.5,195.5C 52.127,193.421 50.7936,190.754 50.5,187.5 Z"/></g>
<g><path style="opacity:1" fill="#9b8f8e" d="M 486.5,187.5 C 488.25,188.659 489.25,190.326 489.5,192.5C 487.75,191.341 486.75,189.674 486.5,187.5 Z"/></g>
<g><path style="opacity:1" fill="#9b8f8e" d="M 955.5,187.5 C 955.389,188.117 955.056,188.617 954.5,189C 951.304,189.805 948.304,189.638 945.5,188.5C 948.902,188.658 952.236,188.324 955.5,187.5 Z"/></g>
<g><path style="opacity:1" fill="#908583" d="M 63.5,184.5 C 66.7483,189.326 69.7483,194.326 72.5,199.5C 69.5074,196.499 66.8407,193.165 64.5,189.5C 63.6906,187.929 63.3573,186.262 63.5,184.5 Z"/></g>
<g><path style="opacity:1" fill="#9b8f8e" d="M 260.5,188.5 C 259.502,192.505 257.502,195.839 254.5,198.5C 256,194.827 258,191.494 260.5,188.5 Z"/></g>
<g><path style="opacity:1" fill="#998c8c" d="M 155.5,189.5 C 156.662,207.662 156.829,225.995 156,244.5C 155.586,244.957 155.086,245.291 154.5,245.5C 145.122,243.99 135.788,242.156 126.5,240C 125.944,239.617 125.611,239.117 125.5,238.5C 135.343,241.128 145.343,242.794 155.5,243.5C 155.5,225.5 155.5,207.5 155.5,189.5 Z"/></g>
<g><path style="opacity:1" fill="#9b8f8e" d="M 693.5,189.5 C 693.539,192.089 692.539,194.089 690.5,195.5C 690.992,193.181 691.992,191.181 693.5,189.5 Z"/></g>
<g><path style="opacity:1" fill="#9b8f8e" d="M 489.5,192.5 C 490.906,192.973 491.573,193.973 491.5,195.5C 490.094,195.027 489.427,194.027 489.5,192.5 Z"/></g>
<g><path style="opacity:1" fill="#9b8f8e" d="M 475.5,193.5 C 477.25,194.659 478.25,196.326 478.5,198.5C 476.75,197.341 475.75,195.674 475.5,193.5 Z"/></g>
<g><path style="opacity:1" fill="#9b8f8e" d="M 957.5,238.5 C 956.826,224.098 956.159,209.598 955.5,195C 950.913,194.201 946.413,194.368 942,195.5C 941.667,206.5 941.333,217.5 941,228.5C 940.798,230.256 940.298,231.922 939.5,233.5C 938.893,233.376 938.56,233.043 938.5,232.5C 939.474,229.702 940.14,226.702 940.5,223.5C 940.665,216.89 940.332,210.223 939.5,203.5C 940.139,200.525 940.639,197.525 941,194.5C 946.082,193.363 951.249,193.196 956.5,194C 957.167,194.667 957.833,195.333 958.5,196C 957.51,210.088 957.176,224.255 957.5,238.5 Z"/></g>
<g><path style="opacity:1" fill="#9b8f8e" d="M 675.5,194.5 C 675.573,196.027 674.906,197.027 673.5,197.5C 673.427,195.973 674.094,194.973 675.5,194.5 Z"/></g>
<g><path style="opacity:1" fill="#9b8f8e" d="M 54.5,195.5 C 56.3264,197.147 57.6597,199.147 58.5,201.5C 56.1782,200.198 54.8449,198.198 54.5,195.5 Z"/></g>
<g><path style="opacity:1" fill="#9b8f8e" d="M 491.5,195.5 C 492.906,195.973 493.573,196.973 493.5,198.5C 492.094,198.027 491.427,197.027 491.5,195.5 Z"/></g>
<g><path style="opacity:1" fill="#9b8f8e" d="M 1076.5,195.5 C 1075.92,197.749 1074.59,199.415 1072.5,200.5C 1073.08,198.251 1074.41,196.585 1076.5,195.5 Z"/></g>
<g><path style="opacity:1" fill="#9b8f8e" d="M 673.5,197.5 C 673.262,199.404 672.262,200.738 670.5,201.5C 670.738,199.596 671.738,198.262 673.5,197.5 Z"/></g>
<g><path style="opacity:1" fill="#9b8f8e" d="M 689.5,197.5 C 689.573,199.027 688.906,200.027 687.5,200.5C 687.427,198.973 688.094,197.973 689.5,197.5 Z"/></g>
<g><path style="opacity:1" fill="#9b8f8e" d="M 254.5,198.5 C 252.889,202.051 250.556,205.051 247.5,207.5C 249.111,203.949 251.444,200.949 254.5,198.5 Z"/></g>
<g><path style="opacity:1" fill="#9b8f8e" d="M 478.5,198.5 C 479.906,198.973 480.573,199.973 480.5,201.5C 479.094,201.027 478.427,200.027 478.5,198.5 Z"/></g>
<g><path style="opacity:1" fill="#9b8f8e" d="M 72.5,199.5 C 74.2624,200.262 75.2624,201.596 75.5,203.5C 73.7376,202.738 72.7376,201.404 72.5,199.5 Z"/></g>
<g><path style="opacity:1" fill="#918684" d="M 493.5,198.5 C 495.587,199.585 496.92,201.251 497.5,203.5C 495.413,202.415 494.08,200.749 493.5,198.5 Z"/></g>
<g><path style="opacity:1" fill="#9b8f8e" d="M 687.5,200.5 C 687.573,202.027 686.906,203.027 685.5,203.5C 685.427,201.973 686.094,200.973 687.5,200.5 Z"/></g>
<g><path style="opacity:1" fill="#9b8f8e" d="M 480.5,201.5 C 482.262,202.262 483.262,203.596 483.5,205.5C 481.738,204.738 480.738,203.404 480.5,201.5 Z"/></g>
<g><path style="opacity:1" fill="#9b8f8e" d="M 267.5,202.5 C 267.155,205.198 265.822,207.198 263.5,208.5C 264.34,206.147 265.674,204.147 267.5,202.5 Z"/></g>
<g><path style="opacity:1" fill="#9b8f8e" d="M 1070.5,202.5 C 1069.92,204.749 1068.59,206.415 1066.5,207.5C 1067.08,205.251 1068.41,203.585 1070.5,202.5 Z"/></g>
<g><path style="opacity:1" fill="#9b8f8e" d="M 75.5,203.5 C 78.5725,205.569 80.9059,208.236 82.5,211.5C 79.4275,209.431 77.0941,206.764 75.5,203.5 Z"/></g>
<g><path style="opacity:1" fill="#9b8f8e" d="M 685.5,203.5 C 685.573,205.027 684.906,206.027 683.5,206.5C 683.427,204.973 684.094,203.973 685.5,203.5 Z"/></g>
<g><path style="opacity:1" fill="#9b8f8e" d="M 60.5,204.5 C 61.9063,204.973 62.573,205.973 62.5,207.5C 61.0937,207.027 60.427,206.027 60.5,204.5 Z"/></g>
<g><path style="opacity:1" fill="#9b8f8e" d="M 899.5,204.5 C 903.167,207.5 906.5,210.833 909.5,214.5C 905.167,212.167 901.833,208.833 899.5,204.5 Z"/></g>
<g><path style="opacity:1" fill="#9b8f8e" d="M 483.5,205.5 C 484.906,205.973 485.573,206.973 485.5,208.5C 484.094,208.027 483.427,207.027 483.5,205.5 Z"/></g>
<g><path style="opacity:1" fill="#9b8f8e" d="M 500.5,206.5 C 504.167,209.5 507.5,212.833 510.5,216.5C 506.167,214.167 502.833,210.833 500.5,206.5 Z"/></g>
<g><path style="opacity:1" fill="#9b8f8e" d="M 683.5,206.5 C 683.262,208.404 682.262,209.738 680.5,210.5C 680.738,208.596 681.738,207.262 683.5,206.5 Z"/></g>
<g><path style="opacity:1" fill="#9b8f8e" d="M 247.5,207.5 C 245.833,211.167 243.167,213.833 239.5,215.5C 241.833,212.5 244.5,209.833 247.5,207.5 Z"/></g>
<g><path style="opacity:1" fill="#7c756f" d="M 670.5,201.5 C 666.833,208.5 661.5,213.833 654.5,217.5C 660.167,212.5 665.5,207.167 670.5,201.5 Z"/></g>
<g><path style="opacity:1" fill="#9b8f8e" d="M 263.5,208.5 C 262.92,210.749 261.587,212.415 259.5,213.5C 260.08,211.251 261.413,209.585 263.5,208.5 Z"/></g>
<g><path style="opacity:1" fill="#968a89" d="M 485.5,208.5 C 488.851,210.854 491.518,213.854 493.5,217.5C 490.119,215.12 487.453,212.12 485.5,208.5 Z"/></g>
<g><path style="opacity:1" fill="#9b8f8e" d="M 679.5,211.5 C 678.243,214.427 676.243,216.761 673.5,218.5C 674.757,215.573 676.757,213.239 679.5,211.5 Z"/></g>
<g><path style="opacity:1" fill="#928785" d="M 62.5,207.5 C 68.3913,213.73 74.3913,220.064 80.5,226.5C 73.1212,221.455 67.1212,215.122 62.5,207.5 Z"/></g>
<g><path style="opacity:1" fill="#7c756f" d="M 82.5,211.5 C 85.859,214.529 89.1924,217.529 92.5,220.5C 87.8955,218.895 84.5622,215.895 82.5,211.5 Z"/></g>
<g><path style="opacity:1" fill="#9b8f8e" d="M 1060.5,213.5 C 1059.42,215.587 1057.75,216.92 1055.5,217.5C 1056.58,215.413 1058.25,214.08 1060.5,213.5 Z"/></g>
<g><path style="opacity:1" fill="#9b8f8e" d="M 1078.5,213.5 C 1076.17,217.833 1072.83,221.167 1068.5,223.5C 1071.5,219.833 1074.83,216.5 1078.5,213.5 Z"/></g>
<g><path style="opacity:1" fill="#9b8f8e" d="M 258.5,214.5 C 255.167,219.833 250.833,224.167 245.5,227.5C 249.5,222.833 253.833,218.5 258.5,214.5 Z"/></g>
<g><path style="opacity:1" fill="#9b8f8e" d="M 237.5,217.5 C 236.415,219.587 234.749,220.92 232.5,221.5C 233.585,219.413 235.251,218.08 237.5,217.5 Z"/></g>
<g><path style="opacity:1" fill="#8c827f" d="M 510.5,216.5 C 512.389,217.604 514.055,218.937 515.5,220.5C 512.796,220.33 511.129,218.997 510.5,216.5 Z"/></g>
<g><path style="opacity:1" fill="#938786" d="M 493.5,217.5 C 497.436,219.766 500.769,222.766 503.5,226.5C 499.564,224.234 496.231,221.234 493.5,217.5 Z"/></g>
<g><path style="opacity:1" fill="#9b8f8e" d="M 560.5,220.5 C 562.204,224.617 563.537,228.951 564.5,233.5C 561.987,229.622 560.654,225.289 560.5,220.5 Z"/></g>
<g><path style="opacity:1" fill="#9b8f8e" d="M 232.5,221.5 C 232.027,222.906 231.027,223.573 229.5,223.5C 229.973,222.094 230.973,221.427 232.5,221.5 Z"/></g>
<g><path style="opacity:1" fill="#7d7670" d="M 653.5,218.5 C 651.533,222.624 648.2,224.958 643.5,225.5C 646.825,223.169 650.158,220.836 653.5,218.5 Z"/></g>
<g><path style="opacity:1" fill="#9b8f8e" d="M 669.5,222.5 C 668.415,224.587 666.749,225.92 664.5,226.5C 665.585,224.413 667.251,223.08 669.5,222.5 Z"/></g>
<g><path style="opacity:1" fill="#9b8f8e" d="M 96.5,223.5 C 98.8525,224.34 100.853,225.674 102.5,227.5C 99.8021,227.155 97.8021,225.822 96.5,223.5 Z"/></g>
<g><path style="opacity:1" fill="#9b8f8e" d="M 229.5,223.5 C 229.027,224.906 228.027,225.573 226.5,225.5C 226.973,224.094 227.973,223.427 229.5,223.5 Z"/></g>
<g><path style="opacity:1" fill="#9b8f8e" d="M 226.5,225.5 C 226.027,226.906 225.027,227.573 223.5,227.5C 223.973,226.094 224.973,225.427 226.5,225.5 Z"/></g>
<g><path style="opacity:1" fill="#9b8f8e" d="M 643.5,225.5 C 643.027,226.906 642.027,227.573 640.5,227.5C 640.973,226.094 641.973,225.427 643.5,225.5 Z"/></g>
<g><path style="opacity:1" fill="#9b8f8e" d="M 1066.5,225.5 C 1065.42,227.587 1063.75,228.92 1061.5,229.5C 1062.58,227.413 1064.25,226.08 1066.5,225.5 Z"/></g>
<g><path style="opacity:1" fill="#9b8f8e" d="M 574.5,226.5 C 576.204,229.256 577.537,232.256 578.5,235.5C 576.026,233.102 574.692,230.102 574.5,226.5 Z"/></g>
<g><path style="opacity:1" fill="#9b8f8e" d="M 102.5,227.5 C 104.027,227.427 105.027,228.094 105.5,229.5C 103.973,229.573 102.973,228.906 102.5,227.5 Z"/></g>
<g><path style="opacity:1" fill="#9b8f8e" d="M 640.5,227.5 C 637.086,230.54 633.086,232.54 628.5,233.5C 632.182,230.992 636.182,228.992 640.5,227.5 Z"/></g>
<g><path style="opacity:1" fill="#8c827f" d="M 80.5,226.5 C 82.7488,227.08 84.4154,228.413 85.5,230.5C 83.2512,229.92 81.5846,228.587 80.5,226.5 Z"/></g>
<g><path style="opacity:1" fill="#767069" d="M 504.5,227.5 C 508.071,227.561 510.404,229.227 511.5,232.5C 508.63,231.567 506.296,229.9 504.5,227.5 Z"/></g>
<g><path style="opacity:1" fill="#9b8f8e" d="M 662.5,228.5 C 661.738,230.262 660.404,231.262 658.5,231.5C 659.262,229.738 660.596,228.738 662.5,228.5 Z"/></g>
<g><path style="opacity:1" fill="#9b8f8e" d="M 1039.5,228.5 C 1037.57,230.293 1035.24,231.293 1032.5,231.5C 1034.43,229.707 1036.76,228.707 1039.5,228.5 Z"/></g>
<g><path style="opacity:1" fill="#9b8f8e" d="M 105.5,229.5 C 108.485,230.326 111.151,231.659 113.5,233.5C 110.246,233.206 107.579,231.873 105.5,229.5 Z"/></g>
<g><path style="opacity:1" fill="#9b8f8e" d="M 243.5,229.5 C 242.738,231.262 241.404,232.262 239.5,232.5C 240.262,230.738 241.596,229.738 243.5,229.5 Z"/></g>
<g><path style="opacity:1" fill="#8b817e" d="M 522.5,225.5 C 527,227.583 531.334,229.916 535.5,232.5C 530.104,231.837 525.771,229.504 522.5,225.5 Z"/></g>
<g><path style="opacity:1" fill="#9b8f8e" d="M 85.5,230.5 C 87.4044,230.738 88.7377,231.738 89.5,233.5C 87.5956,233.262 86.2623,232.262 85.5,230.5 Z"/></g>
<g><path style="opacity:1" fill="#9b8f8e" d="M 658.5,231.5 C 658.027,232.906 657.027,233.573 655.5,233.5C 655.973,232.094 656.973,231.427 658.5,231.5 Z"/></g>
<g><path style="opacity:1" fill="#9b8f8e" d="M 239.5,232.5 C 239.027,233.906 238.027,234.573 236.5,234.5C 236.973,233.094 237.973,232.427 239.5,232.5 Z"/></g>
<g><path style="opacity:1" fill="#9b8f8e" d="M 511.5,232.5 C 513.027,232.427 514.027,233.094 514.5,234.5C 512.973,234.573 511.973,233.906 511.5,232.5 Z"/></g>
<g><path style="opacity:1" fill="#988c8b" d="M 535.5,232.5 C 545.218,236.183 555.218,238.85 565.5,240.5C 565.833,240.167 566.167,239.833 566.5,239.5C 565.628,237.55 564.961,235.55 564.5,233.5C 566.269,235.388 567.602,237.721 568.5,240.5C 556.697,241.121 545.697,238.454 535.5,232.5 Z"/></g>
<g><path style="opacity:1" fill="#9b8f8e" d="M 89.5,233.5 C 91.0269,233.427 92.0269,234.094 92.5,235.5C 90.9731,235.573 89.9731,234.906 89.5,233.5 Z"/></g>
<g><path style="opacity:1" fill="#9b8f8e" d="M 628.5,233.5 C 624.336,236.334 619.669,238.001 614.5,238.5C 618.952,236.459 623.618,234.792 628.5,233.5 Z"/></g>
<g><path style="opacity:1" fill="#9b8f8e" d="M 655.5,233.5 C 653.664,235.588 651.331,236.921 648.5,237.5C 650.336,235.412 652.669,234.079 655.5,233.5 Z"/></g>
<g><path style="opacity:1" fill="#8d8280" d="M 113.5,233.5 C 116.157,233.935 118.491,234.935 120.5,236.5C 117.539,236.536 115.206,235.536 113.5,233.5 Z"/></g>
<g><path style="opacity:1" fill="#9b8f8e" d="M 236.5,234.5 C 236.027,235.906 235.027,236.573 233.5,236.5C 233.973,235.094 234.973,234.427 236.5,234.5 Z"/></g>
<g><path style="opacity:1" fill="#9b8f8e" d="M 514.5,234.5 C 516.674,234.75 518.341,235.75 519.5,237.5C 517.326,237.25 515.659,236.25 514.5,234.5 Z"/></g>
<g><path style="opacity:1" fill="#9b8f8e" d="M 92.5,235.5 C 94.0269,235.427 95.0269,236.094 95.5,237.5C 93.9731,237.573 92.9731,236.906 92.5,235.5 Z"/></g>
<g><path style="opacity:1" fill="#9b8f8e" d="M 120.5,236.5 C 122.553,236.402 124.22,237.069 125.5,238.5C 123.447,238.598 121.78,237.931 120.5,236.5 Z"/></g>
<g><path style="opacity:1" fill="#7d7570" d="M 223.5,227.5 C 218.309,232.267 212.309,235.767 205.5,238C 200.218,239.489 194.884,240.656 189.5,241.5C 201.232,237.973 212.565,233.306 223.5,227.5 Z"/></g>
<g><path style="opacity:1" fill="#9b8f8e" d="M 233.5,236.5 C 232.341,238.25 230.674,239.25 228.5,239.5C 229.659,237.75 231.326,236.75 233.5,236.5 Z"/></g>
<g><path style="opacity:1" fill="#9b8f8e" d="M 95.5,237.5 C 98.3311,238.079 100.664,239.412 102.5,241.5C 99.6689,240.921 97.3356,239.588 95.5,237.5 Z"/></g>
<g><path style="opacity:1" fill="#9b8f8e" d="M 579.5,237.5 C 582.292,240.938 585.959,242.271 590.5,241.5C 598.533,240.716 606.533,239.716 614.5,238.5C 604.211,241.942 593.545,243.109 582.5,242C 580.859,240.871 579.859,239.371 579.5,237.5 Z"/></g>
<g><path style="opacity:1" fill="#9b8f8e" d="M 648.5,237.5 C 646.421,239.873 643.754,241.206 640.5,241.5C 642.849,239.659 645.515,238.326 648.5,237.5 Z"/></g>
<g><path style="opacity:1" fill="#9b8f8e" d="M 920.5,237.5 C 925.484,239.326 930.151,241.659 934.5,244.5C 929.247,243.207 924.581,240.874 920.5,237.5 Z"/></g>
<g><path style="opacity:1" fill="#9b8f8e" d="M 228.5,239.5 C 224.419,242.874 219.753,245.207 214.5,246.5C 218.849,243.659 223.516,241.326 228.5,239.5 Z"/></g>
<g><path style="opacity:1" fill="#8e8481" d="M 521.5,238.5 C 524.71,238.87 527.377,240.203 529.5,242.5C 526.279,242.104 523.612,240.771 521.5,238.5 Z"/></g>
<g><path style="opacity:1" fill="#7a736d" d="M 102.5,241.5 C 106.836,241.837 110.503,243.504 113.5,246.5C 109.418,245.624 105.751,243.957 102.5,241.5 Z"/></g>
<g><path style="opacity:1" fill="#9b8f8e" d="M 529.5,242.5 C 532.241,242.707 534.574,243.707 536.5,245.5C 533.759,245.293 531.426,244.293 529.5,242.5 Z"/></g>
<g><path style="opacity:1" fill="#9b8f8e" d="M 638.5,242.5 C 635.66,244.915 632.327,246.248 628.5,246.5C 631.551,244.648 634.884,243.314 638.5,242.5 Z"/></g>
<g><path style="opacity:1" fill="#9b8f8e" d="M 1037.5,243.5 C 1034.63,245.794 1031.3,247.128 1027.5,247.5C 1030.53,245.597 1033.86,244.263 1037.5,243.5 Z"/></g>
<g><path style="opacity:1" fill="#9b8f8e" d="M 536.5,245.5 C 538.898,245.259 540.898,245.926 542.5,247.5C 540.214,247.405 538.214,246.738 536.5,245.5 Z"/></g>
<g><path style="opacity:1" fill="#9b8f8e" d="M 113.5,246.5 C 115.553,246.402 117.22,247.069 118.5,248.5C 116.447,248.598 114.78,247.931 113.5,246.5 Z"/></g>
<g><path style="opacity:1" fill="#9b8f8e" d="M 939.5,246.5 C 945.05,247.796 950.383,249.463 955.5,251.5C 949.7,251.009 944.367,249.343 939.5,246.5 Z"/></g>
<g><path style="opacity:1" fill="#9b8f8e" d="M 625.5,247.5 C 618.95,250.548 611.95,252.214 604.5,252.5C 611.352,250.705 618.352,249.038 625.5,247.5 Z"/></g>
<g><path style="opacity:1" fill="#9b8f8e" d="M 118.5,248.5 C 122.784,249.261 126.784,250.595 130.5,252.5C 126.085,252.139 122.085,250.806 118.5,248.5 Z"/></g>
<g><path style="opacity:1" fill="#9b8f8e" d="M 209.5,248.5 C 205.195,250.746 200.529,252.08 195.5,252.5C 199.895,250.565 204.562,249.231 209.5,248.5 Z"/></g>
<g><path style="opacity:1" fill="#918684" d="M 542.5,247.5 C 547.702,248.383 552.702,249.716 557.5,251.5C 552.112,251.238 547.112,249.905 542.5,247.5 Z"/></g>
<g><path style="opacity:1" fill="#9b8f8e" d="M 1012.5,251.5 C 1005.05,253.353 997.385,254.687 989.5,255.5C 989.666,265.506 989.5,275.506 989,285.5C 983.928,286.471 978.762,286.805 973.5,286.5C 973.5,276.167 973.5,265.833 973.5,255.5C 970.273,255.324 967.273,254.657 964.5,253.5C 967.881,253.46 971.214,253.793 974.5,254.5C 974.5,264.833 974.5,275.167 974.5,285.5C 979.099,285.8 983.599,285.467 988,284.5C 988.106,274.596 988.272,264.596 988.5,254.5C 996.473,253.282 1004.47,252.282 1012.5,251.5 Z"/></g>
<g><path style="opacity:1" fill="#9b8f8e" d="M 130.5,252.5 C 138.785,254.19 147.119,255.69 155.5,257C 156.321,267.423 156.821,277.923 157,288.5C 161.38,290.044 165.546,289.711 169.5,287.5C 169.5,288.5 169.5,289.5 169.5,290.5C 164.901,290.8 160.401,290.467 156,289.5C 155.821,278.923 155.321,268.423 154.5,258C 146.109,257.312 138.109,255.478 130.5,252.5 Z"/></g>
<g><path style="opacity:1" fill="#9b8f8e" d="M 195.5,252.5 C 187.116,255.011 178.45,256.678 169.5,257.5C 169.611,256.883 169.944,256.383 170.5,256C 178.875,255.048 187.208,253.882 195.5,252.5 Z"/></g>
<g><path style="opacity:1" fill="#988c8b" d="M 557.5,251.5 C 562.635,251.292 567.635,251.959 572.5,253.5C 572.334,263.839 572.5,274.172 573,284.5C 576.934,285.821 580.767,285.821 584.5,284.5C 585.33,274.675 585.83,264.675 586,254.5C 592.056,253.216 598.223,252.549 604.5,252.5C 598.69,253.857 592.69,254.857 586.5,255.5C 586.5,265.833 586.5,276.167 586.5,286.5C 581.57,286.803 576.737,286.469 572,285.5C 571.832,275.151 571.332,264.817 570.5,254.5C 565.987,253.77 561.654,252.77 557.5,251.5 Z"/></g>
<g><path style="opacity:1" fill="#505143" d="M 572.5,253.5 C 573.33,263.325 573.83,273.325 574,283.5C 577.394,284.456 580.894,284.789 584.5,284.5C 580.767,285.821 576.934,285.821 573,284.5C 572.5,274.172 572.334,263.839 572.5,253.5 Z"/></g>
<g><path style="opacity:1" fill="#918684" d="M 462.5,310.5 C 460.833,310.5 459.167,310.5 457.5,310.5C 459.048,308.078 460.714,308.078 462.5,310.5 Z"/></g>
<g><path style="opacity:1" fill="#9b8f8e" d="M 471.5,310.5 C 470.167,310.5 468.833,310.5 467.5,310.5C 469.002,307.978 470.335,307.978 471.5,310.5 Z"/></g>
</svg>
