<?xml version="1.0" encoding="UTF-8" standalone="no"?>
<!-- Created with Inkscape (http://www.inkscape.org/) -->

<svg
   width="210mm"
   height="297mm"
   viewBox="0 0 210 297"
   version="1.1"
   id="svg10567"
   xmlns="http://www.w3.org/2000/svg"
   xmlns:svg="http://www.w3.org/2000/svg">
  <defs
     id="defs10564" />
  <g
     id="layer1">
    <g
       id="g1766"
       style="clip-rule:evenodd;fill-rule:evenodd;image-rendering:optimizeQuality;shape-rendering:geometricPrecision;text-rendering:geometricPrecision"
       transform="matrix(0.26458333,0,0,0.26458333,-154.95083,107.61744)">
      <path
         style="opacity:1"
         fill="#9b8f8e"
         d="m 1012.5,26.5 c -20.672,-3.9738 -41.339,-3.9738 -62,0 9.621,-3.0875 19.621,-4.4208 30,-4 11.008,-0.2907 21.67,1.0426 32,4 z"
         id="path1764" />
    </g>
    <g
       id="g1778"
       style="clip-rule:evenodd;fill-rule:evenodd;image-rendering:optimizeQuality;shape-rendering:geometricPrecision;text-rendering:geometricPrecision"
       transform="matrix(0.26458333,0,0,0.26458333,-154.95083,107.61744)">
      <path
         style="opacity:1"
         fill="#545347"
         d="m 1012.5,26.5 c 1.29,-0.2373 2.29,0.096 3,1 3.72,1.9053 7.72,3.2387 12,4 0.99,-0.1716 1.66,0.1618 2,1 4.35,2.8411 9.02,5.1745 14,7 4.78,2.5597 9.44,5.393 14,8.5 1.21,1.0391 2.21,2.2058 3,3.5 1.74,2.7427 4.07,4.7427 7,6 5.62,5.2146 10.78,10.8813 15.5,17 2.83,3.6554 4.99,7.6554 6.5,12 0.83,2.9848 2.16,5.6515 4,8 1.17,1.0137 1.84,2.347 2,4 0.57,4.037 1.9,7.703 4,11 5.29,22.011 5.29,44.011 0,66 0.27,1.599 -0.07,2.932 -1,4 -1.77,2.292 -2.77,4.958 -3,8 -3.68,10.043 -9.35,18.709 -17,26 -3.67,3 -7,6.333 -10,10 -0.33,1 -1,1.667 -2,2 -2.25,0.58 -3.92,1.913 -5,4 -4.58,3.97 -9.58,7.47 -15,10.5 -3.02,1.18 -6.02,2.346 -9,3.5 -3.64,0.763 -6.97,2.097 -10,4 -4.59,2.524 -9.59,3.858 -15,4 -8.03,0.782 -16.027,1.782 -24,3 -0.228,10.096 -0.394,20.096 -0.5,30 -4.401,0.967 -8.901,1.3 -13.5,1 0,-10.333 0,-20.667 0,-31 -3.286,-0.707 -6.619,-1.04 -10,-1 -3.281,0.08 -6.281,-0.587 -9,-2 -5.117,-2.037 -10.45,-3.704 -16,-5 -2.053,0.098 -3.72,-0.569 -5,-2 -4.349,-2.841 -9.016,-5.174 -14,-7 -19,-9.335 -33.334,-23.335 -43,-42 -1.826,-4.984 -4.159,-9.651 -7,-14 -0.565,-4.037 -1.899,-7.703 -4,-11 -0.904,-0.709 -1.237,-1.709 -1,-3 -5.576,-25.996 -3.576,-51.329 6,-76 1.859,-4.7234 4.026,-9.3901 6.5,-14 3.989,-5.8175 8.489,-11.1508 13.5,-16 3,-2.3333 5.667,-5 8,-8 0.79,-1.2942 1.79,-2.4609 3,-3.5 4.216,-3.0561 8.549,-5.8894 13,-8.5 2.831,-0.5787 5.164,-1.912 7,-4 8.496,-5.6134 17.829,-9.28 28,-11 20.661,-3.9738 41.328,-3.9738 62,0 z"
         id="path1776" />
    </g>
    <g
       id="g1790"
       style="clip-rule:evenodd;fill-rule:evenodd;image-rendering:optimizeQuality;shape-rendering:geometricPrecision;text-rendering:geometricPrecision"
       transform="matrix(0.26458333,0,0,0.26458333,-154.95083,107.61744)">
      <path
         style="opacity:1"
         fill="#9b8f8e"
         d="m 1015.5,27.5 c 4.42,0.3606 8.42,1.6939 12,4 -4.28,-0.7613 -8.28,-2.0947 -12,-4 z"
         id="path1788" />
    </g>
    <g
       id="g1814"
       style="clip-rule:evenodd;fill-rule:evenodd;image-rendering:optimizeQuality;shape-rendering:geometricPrecision;text-rendering:geometricPrecision"
       transform="matrix(0.26458333,0,0,0.26458333,-154.95083,107.61744)">
      <path
         style="opacity:1"
         fill="#9b8f8e"
         d="m 1029.5,32.5 c 5.25,1.293 9.92,3.6263 14,7 -4.98,-1.8255 -9.65,-4.1589 -14,-7 z"
         id="path1812" />
    </g>
    <g
       id="g1830"
       style="clip-rule:evenodd;fill-rule:evenodd;image-rendering:optimizeQuality;shape-rendering:geometricPrecision;text-rendering:geometricPrecision"
       transform="matrix(0.26458333,0,0,0.26458333,-154.95083,107.61744)">
      <path
         style="opacity:1"
         fill="#9b8f8e"
         d="m 957.5,238.5 c 5.244,1.315 10.577,1.982 16,2 -0.453,-68.439 -0.453,-136.773 0,-205 -12.427,0.8107 -24.427,3.4774 -36,8 5.226,-3.0247 10.893,-5.1914 17,-6.5 5.792,-1.4066 11.625,-2.5733 17.5,-3.5 0.772,0.1448 1.439,0.4781 2,1 0.667,69 0.667,138 0,207 -0.561,0.522 -1.228,0.855 -2,1 -5.155,-0.655 -9.988,-1.988 -14.5,-4 z"
         id="path1828" />
    </g>
    <g
       id="g1834"
       style="clip-rule:evenodd;fill-rule:evenodd;image-rendering:optimizeQuality;shape-rendering:geometricPrecision;text-rendering:geometricPrecision"
       transform="matrix(0.26458333,0,0,0.26458333,-154.95083,107.61744)">
      <path
         style="opacity:1"
         fill="#9b8f8e"
         d="m 1006.5,36.5 c -5.7,-0.4211 -11.369,-1.0878 -17,-2 -0.142,68.216 -0.142,136.883 0,206 7.38,-0.197 14.71,-0.864 22,-2 -7.33,2.633 -14.999,3.466 -23,2.5 -0.631,-1.906 -0.964,-3.906 -1,-6 -0.009,-66.285 0.158,-132.785 0.5,-199.5 1.18,-1.1841 2.68,-1.8507 4.5,-2 4.901,0.5117 9.57,1.5117 14,3 z"
         id="path1832" />
    </g>
    <g
       id="g1850"
       style="clip-rule:evenodd;fill-rule:evenodd;image-rendering:optimizeQuality;shape-rendering:geometricPrecision;text-rendering:geometricPrecision"
       transform="matrix(0.26458333,0,0,0.26458333,-154.95083,107.61744)">
      <path
         style="opacity:1"
         fill="#f9faf9"
         d="m 1006.5,36.5 c 1.07,0.9345 2.4,1.2678 4,1 3.3,2.1013 6.96,3.4347 11,4 0.71,0.904 1.71,1.2373 3,1 3.02,2.1744 6.35,3.8411 10,5 2.51,2.4236 5.51,4.0903 9,5 1.8,2.4 4.13,4.0667 7,5 0,0.6667 0.33,1 1,1 4,4.6667 8.33,9 13,13 0,0.6667 0.33,1 1,1 0.58,2.2488 1.91,3.9154 4,5 6.38,9.4359 11.72,19.4359 16,30 0.84,5.239 2.17,10.239 4,15 1.31,14.002 1.31,28.002 0,42 -1.78,4.095 -3.11,8.428 -4,13 -1.04,1.43 -1.7,3.097 -2,5 -1.51,1.681 -2.51,3.681 -3,6 -2.09,1.836 -3.42,4.169 -4,7 -2.09,1.085 -3.42,2.751 -4,5 -1,0.333 -1.67,1 -2,2 -2.09,1.085 -3.42,2.751 -4,5 -2.33,1.667 -4.33,3.667 -6,6 -2.25,0.58 -3.92,1.913 -5,4 -5.37,3.679 -10.7,7.346 -16,11 -2.74,0.207 -5.07,1.207 -7,3 -1,0 -2,0 -3,0 0.17,-34.002 0,-68.002 -0.5,-102 -5.45,-1.306 -10.95,-1.306 -16.5,0 -0.99,36.29 -1.33,72.624 -1,109 -7.29,1.136 -14.62,1.803 -22,2 -0.142,-69.117 -0.142,-137.784 0,-206 5.631,0.9122 11.3,1.5789 17,2 z"
         id="path1848" />
    </g>
    <g
       id="g1866"
       style="clip-rule:evenodd;fill-rule:evenodd;image-rendering:optimizeQuality;shape-rendering:geometricPrecision;text-rendering:geometricPrecision"
       transform="matrix(0.26458333,0,0,0.26458333,-154.95083,107.61744)">
      <path
         style="opacity:1"
         fill="#f9faf9"
         d="m 957.5,238.5 c -0.324,-14.245 0.01,-28.412 1,-42.5 -0.667,-0.667 -1.333,-1.333 -2,-2 -5.251,-0.804 -10.418,-0.637 -15.5,0.5 -0.361,3.025 -0.861,6.025 -1.5,9 0.832,6.723 1.165,13.39 1,20 -0.36,3.202 -1.026,6.202 -2,9 -10.404,-4.707 -20.07,-10.707 -29,-18 -3,-3.667 -6.333,-7 -10,-10 -9.108,-11.553 -16.108,-24.22 -21,-38 -0.639,-5.196 -1.639,-10.196 -3,-15 -0.912,-9.035 -0.912,-18.035 0,-27 1.489,-5.117 2.489,-10.451 3,-16 5.086,-12.8362 11.753,-24.8362 20,-36 2.087,-1.0846 3.42,-2.7512 4,-5 1.667,-1 3,-2.3333 4,-4 2.249,-0.5798 3.915,-1.9131 5,-4 4.95,-2.9525 9.617,-6.2859 14,-10 4.318,-1.4922 8.318,-3.4922 12,-6 11.573,-4.5226 23.573,-7.1893 36,-8 -0.453,68.227 -0.453,136.561 0,205 -5.423,-0.018 -10.756,-0.685 -16,-2 z"
         id="path1864" />
    </g>
    <g
       id="g1894"
       style="clip-rule:evenodd;fill-rule:evenodd;image-rendering:optimizeQuality;shape-rendering:geometricPrecision;text-rendering:geometricPrecision"
       transform="matrix(0.26458333,0,0,0.26458333,-154.95083,107.61744)">
      <path
         style="opacity:1"
         fill="#9b8f8e"
         d="m 922.5,37.5 c -1.836,2.088 -4.169,3.4213 -7,4 1.836,-2.088 4.169,-3.4213 7,-4 z"
         id="path1892" />
    </g>
    <g
       id="g1898"
       style="clip-rule:evenodd;fill-rule:evenodd;image-rendering:optimizeQuality;shape-rendering:geometricPrecision;text-rendering:geometricPrecision"
       transform="matrix(0.26458333,0,0,0.26458333,-154.95083,107.61744)">
      <path
         style="opacity:1"
         fill="#9b8f8e"
         d="m 1010.5,37.5 c 4.04,0.5653 7.7,1.8987 11,4 -4.04,-0.5653 -7.7,-1.8987 -11,-4 z"
         id="path1896" />
    </g>
    <g
       id="g1942"
       style="clip-rule:evenodd;fill-rule:evenodd;image-rendering:optimizeQuality;shape-rendering:geometricPrecision;text-rendering:geometricPrecision"
       transform="matrix(0.26458333,0,0,0.26458333,-154.95083,107.61744)">
      <path
         style="opacity:1"
         fill="#9b8f8e"
         d="m 1024.5,42.5 c 3.92,0.6266 7.25,2.2933 10,5 -3.65,-1.1589 -6.98,-2.8256 -10,-5 z"
         id="path1940" />
    </g>
    <g
       id="g1950"
       style="clip-rule:evenodd;fill-rule:evenodd;image-rendering:optimizeQuality;shape-rendering:geometricPrecision;text-rendering:geometricPrecision"
       transform="matrix(0.26458333,0,0,0.26458333,-154.95083,107.61744)">
      <path
         style="opacity:1"
         fill="#9b8f8e"
         d="m 937.5,43.5 c -3.682,2.5078 -7.682,4.5078 -12,6 3.414,-3.0402 7.414,-5.0402 12,-6 z"
         id="path1948" />
    </g>
    <g
       id="g2026"
       style="clip-rule:evenodd;fill-rule:evenodd;image-rendering:optimizeQuality;shape-rendering:geometricPrecision;text-rendering:geometricPrecision"
       transform="matrix(0.26458333,0,0,0.26458333,-154.95083,107.61744)">
      <path
         style="opacity:1"
         fill="#9b8f8e"
         d="m 1060.5,51.5 c 2.93,1.2573 5.26,3.2573 7,6 -2.93,-1.2573 -5.26,-3.2573 -7,-6 z"
         id="path2024" />
    </g>
    <g
       id="g2038"
       style="clip-rule:evenodd;fill-rule:evenodd;image-rendering:optimizeQuality;shape-rendering:geometricPrecision;text-rendering:geometricPrecision"
       transform="matrix(0.26458333,0,0,0.26458333,-154.95083,107.61744)">
      <path
         style="opacity:1"
         fill="#9b8f8e"
         d="m 1043.5,52.5 c 2.87,0.9333 5.2,2.6 7,5 -2.87,-0.9333 -5.2,-2.6 -7,-5 z"
         id="path2036" />
    </g>
    <g
       id="g2042"
       style="clip-rule:evenodd;fill-rule:evenodd;image-rendering:optimizeQuality;shape-rendering:geometricPrecision;text-rendering:geometricPrecision"
       transform="matrix(0.26458333,0,0,0.26458333,-154.95083,107.61744)">
      <path
         style="opacity:1"
         fill="#9b8f8e"
         d="m 899.5,53.5 c -2.333,3 -5,5.6667 -8,8 1.667,-3.6667 4.333,-6.3333 8,-8 z"
         id="path2040" />
    </g>
    <g
       id="g2086"
       style="clip-rule:evenodd;fill-rule:evenodd;image-rendering:optimizeQuality;shape-rendering:geometricPrecision;text-rendering:geometricPrecision"
       transform="matrix(0.26458333,0,0,0.26458333,-154.95083,107.61744)">
      <path
         style="opacity:1"
         fill="#9b8f8e"
         d="m 1051.5,58.5 c 5.33,3.3333 9.67,7.6667 13,13 -4.67,-4 -9,-8.3333 -13,-13 z"
         id="path2084" />
    </g>
    <g
       id="g2102"
       style="clip-rule:evenodd;fill-rule:evenodd;image-rendering:optimizeQuality;shape-rendering:geometricPrecision;text-rendering:geometricPrecision"
       transform="matrix(0.26458333,0,0,0.26458333,-154.95083,107.61744)">
      <path
         style="opacity:1"
         fill="#9b8f8e"
         d="m 911.5,59.5 c -1.085,2.0869 -2.751,3.4202 -5,4 1.085,-2.0869 2.751,-3.4202 5,-4 z"
         id="path2100" />
    </g>
    <g
       id="g2118"
       style="clip-rule:evenodd;fill-rule:evenodd;image-rendering:optimizeQuality;shape-rendering:geometricPrecision;text-rendering:geometricPrecision"
       transform="matrix(0.26458333,0,0,0.26458333,-154.95083,107.61744)">
      <path
         style="opacity:1"
         fill="#9b8f8e"
         d="m 902.5,67.5 c -0.58,2.2488 -1.913,3.9154 -4,5 0.58,-2.2488 1.913,-3.9154 4,-5 z"
         id="path2116" />
    </g>
    <g
       id="g2166"
       style="clip-rule:evenodd;fill-rule:evenodd;image-rendering:optimizeQuality;shape-rendering:geometricPrecision;text-rendering:geometricPrecision"
       transform="matrix(0.26458333,0,0,0.26458333,-154.95083,107.61744)">
      <path
         style="opacity:1"
         fill="#9b8f8e"
         d="m 1065.5,72.5 c 2.09,1.0846 3.42,2.7512 4,5 -2.09,-1.0846 -3.42,-2.7512 -4,-5 z"
         id="path2164" />
    </g>
    <g
       id="g2278"
       style="clip-rule:evenodd;fill-rule:evenodd;image-rendering:optimizeQuality;shape-rendering:geometricPrecision;text-rendering:geometricPrecision"
       transform="matrix(0.26458333,0,0,0.26458333,-154.95083,107.61744)">
      <path
         style="opacity:1"
         fill="#9b8f8e"
         d="m 1089.5,86.5 c 2.37,2.0792 3.71,4.7459 4,8 -1.84,-2.3485 -3.17,-5.0152 -4,-8 z"
         id="path2276" />
    </g>
    <g
       id="g2326"
       style="clip-rule:evenodd;fill-rule:evenodd;image-rendering:optimizeQuality;shape-rendering:geometricPrecision;text-rendering:geometricPrecision"
       transform="matrix(0.26458333,0,0,0.26458333,-154.95083,107.61744)">
      <path
         style="opacity:1"
         fill="#9b8f8e"
         d="m 871.5,91.5 c -9.576,24.671 -11.576,50.004 -6,76 -1.923,-4.699 -3.09,-9.699 -3.5,-15 -1.606,-16.601 -0.272,-32.934 4,-49 1.061,-4.4495 2.895,-8.4495 5.5,-12 z"
         id="path2324" />
    </g>
    <g
       id="g2354"
       style="clip-rule:evenodd;fill-rule:evenodd;image-rendering:optimizeQuality;shape-rendering:geometricPrecision;text-rendering:geometricPrecision"
       transform="matrix(0.26458333,0,0,0.26458333,-154.95083,107.61744)">
      <path
         style="opacity:1"
         fill="#9b8f8e"
         d="m 1095.5,98.5 c 2.1,3.297 3.43,6.963 4,11 -2.1,-3.297 -3.43,-6.963 -4,-11 z"
         id="path2352" />
    </g>
    <g
       id="g2362"
       style="clip-rule:evenodd;fill-rule:evenodd;image-rendering:optimizeQuality;shape-rendering:geometricPrecision;text-rendering:geometricPrecision"
       transform="matrix(0.26458333,0,0,0.26458333,-154.95083,107.61744)">
      <path
         style="opacity:1"
         fill="#9b8f8e"
         d="m 1014.5,100.5 c 3.48,-1.1433 7.14,-1.3099 11,-0.5 1.44,0.377 2.44,1.21 3,2.5 -4.47,-1.716 -9.14,-2.382 -14,-2 z"
         id="path2360" />
    </g>
    <g
       id="g2374"
       style="clip-rule:evenodd;fill-rule:evenodd;image-rendering:optimizeQuality;shape-rendering:geometricPrecision;text-rendering:geometricPrecision"
       transform="matrix(0.26458333,0,0,0.26458333,-154.95083,107.61744)">
      <path
         style="opacity:1"
         fill="#9b8f8e"
         d="m 1014.5,100.5 c -2,2.171 -3.83,4.504 -5.5,7 -0.54,3.368 -0.38,6.701 0.5,10 -3.12,-3.298 -3.62,-6.965 -1.5,-11 1.41,-2.909 3.57,-4.909 6.5,-6 z"
         id="path2372" />
    </g>
    <g
       id="g2378"
       style="clip-rule:evenodd;fill-rule:evenodd;image-rendering:optimizeQuality;shape-rendering:geometricPrecision;text-rendering:geometricPrecision"
       transform="matrix(0.26458333,0,0,0.26458333,-154.95083,107.61744)">
      <path
         style="opacity:1"
         fill="#555448"
         d="m 1014.5,100.5 c 4.86,-0.382 9.53,0.284 14,2 0.67,0 1,0.333 1,1 1.38,2.46 2.38,5.126 3,8 -0.67,2.351 -1.34,4.684 -2,7 -5.57,5.603 -11.9,6.436 -19,2.5 -1.32,-0.816 -1.99,-1.983 -2,-3.5 -0.88,-3.299 -1.04,-6.632 -0.5,-10 1.67,-2.496 3.5,-4.829 5.5,-7 z"
         id="path2376" />
    </g>
    <g
       id="g2410"
       style="clip-rule:evenodd;fill-rule:evenodd;image-rendering:optimizeQuality;shape-rendering:geometricPrecision;text-rendering:geometricPrecision"
       transform="matrix(0.26458333,0,0,0.26458333,-154.95083,107.61744)">
      <path
         style="opacity:1"
         fill="#9b8f8e"
         d="m 1029.5,103.5 c 2.65,1.898 3.98,4.565 4,8 -0.05,2.86 -1.05,5.193 -3,7 0.66,-2.316 1.33,-4.649 2,-7 -0.62,-2.874 -1.62,-5.54 -3,-8 z"
         id="path2408" />
    </g>
    <g
       id="g2434"
       style="clip-rule:evenodd;fill-rule:evenodd;image-rendering:optimizeQuality;shape-rendering:geometricPrecision;text-rendering:geometricPrecision"
       transform="matrix(0.26458333,0,0,0.26458333,-154.95083,107.61744)">
      <path
         style="opacity:1"
         fill="#9b8f8e"
         d="m 1085.5,107.5 c 2.4,4.612 3.74,9.612 4,15 -1.83,-4.761 -3.16,-9.761 -4,-15 z"
         id="path2432" />
    </g>
    <g
       id="g2438"
       style="clip-rule:evenodd;fill-rule:evenodd;image-rendering:optimizeQuality;shape-rendering:geometricPrecision;text-rendering:geometricPrecision"
       transform="matrix(0.26458333,0,0,0.26458333,-154.95083,107.61744)">
      <path
         style="opacity:1"
         fill="#9b8f8e"
         d="m 878.5,108.5 c -0.511,5.549 -1.511,10.883 -3,16 -0.004,-5.642 0.996,-10.975 3,-16 z"
         id="path2436" />
    </g>
    <g
       id="g2450"
       style="clip-rule:evenodd;fill-rule:evenodd;image-rendering:optimizeQuality;shape-rendering:geometricPrecision;text-rendering:geometricPrecision"
       transform="matrix(0.26458333,0,0,0.26458333,-154.95083,107.61744)">
      <path
         style="opacity:1"
         fill="#9b8f8e"
         d="m 1099.5,109.5 c 3.89,10.868 5.55,22.202 5,34 -0.17,5 -0.33,10 -0.5,15 -0.57,6.049 -2.07,11.716 -4.5,17 5.29,-21.989 5.29,-43.989 0,-66 z"
         id="path2448" />
    </g>
    <g
       id="g2534"
       style="clip-rule:evenodd;fill-rule:evenodd;image-rendering:optimizeQuality;shape-rendering:geometricPrecision;text-rendering:geometricPrecision"
       transform="matrix(0.26458333,0,0,0.26458333,-154.95083,107.61744)">
      <path
         style="opacity:1"
         fill="#9b8f8e"
         d="m 1032.5,231.5 c -1.02,1.454 -2.19,1.787 -3.5,1 -0.33,-34 -0.67,-68 -1,-102 -4.74,-0.969 -9.57,-1.303 -14.5,-1 -0.49,36.294 -0.49,72.128 0,107.5 -0.54,0.717 -1.21,1.217 -2,1.5 -0.33,-36.376 0.01,-72.71 1,-109 5.55,-1.306 11.05,-1.306 16.5,0 0.5,33.998 0.67,67.998 0.5,102 1,0 2,0 3,0 z"
         id="path2532" />
    </g>
    <g
       id="g2646"
       style="clip-rule:evenodd;fill-rule:evenodd;image-rendering:optimizeQuality;shape-rendering:geometricPrecision;text-rendering:geometricPrecision"
       transform="matrix(0.26458333,0,0,0.26458333,-154.95083,107.61744)">
      <path
         style="opacity:1"
         fill="#9b8f8e"
         d="m 875.5,151.5 c 1.361,4.804 2.361,9.804 3,15 -2.131,-4.652 -3.131,-9.652 -3,-15 z"
         id="path2644" />
    </g>
    <g
       id="g2666"
       style="clip-rule:evenodd;fill-rule:evenodd;image-rendering:optimizeQuality;shape-rendering:geometricPrecision;text-rendering:geometricPrecision"
       transform="matrix(0.26458333,0,0,0.26458333,-154.95083,107.61744)">
      <path
         style="opacity:1"
         fill="#565549"
         d="m 959.5,169.5 c 2.869,5.57 2.535,10.903 -1,16 -0.473,1.406 -1.473,2.073 -3,2 -3.264,0.824 -6.598,1.158 -10,1 -2.698,-0.345 -4.698,-1.678 -6,-4 -1.643,-3.8 -2.31,-7.8 -2,-12 4.052,-8.629 10.385,-10.796 19,-6.5 1.21,1.039 2.21,2.206 3,3.5 z"
         id="path2664" />
    </g>
    <g
       id="g2670"
       style="clip-rule:evenodd;fill-rule:evenodd;image-rendering:optimizeQuality;shape-rendering:geometricPrecision;text-rendering:geometricPrecision"
       transform="matrix(0.26458333,0,0,0.26458333,-154.95083,107.61744)">
      <path
         style="opacity:1"
         fill="#9b8f8e"
         d="m 1089.5,164.5 c -0.27,4.764 -1.6,9.097 -4,13 0.89,-4.572 2.22,-8.905 4,-13 z"
         id="path2668" />
    </g>
    <g
       id="g2686"
       style="clip-rule:evenodd;fill-rule:evenodd;image-rendering:optimizeQuality;shape-rendering:geometricPrecision;text-rendering:geometricPrecision"
       transform="matrix(0.26458333,0,0,0.26458333,-154.95083,107.61744)">
      <path
         style="opacity:1"
         fill="#9b8f8e"
         d="m 959.5,169.5 c 2.394,1.832 3.394,4.332 3,7.5 0.385,3.727 -0.948,6.56 -4,8.5 3.535,-5.097 3.869,-10.43 1,-16 z"
         id="path2684" />
    </g>
    <g
       id="g2694"
       style="clip-rule:evenodd;fill-rule:evenodd;image-rendering:optimizeQuality;shape-rendering:geometricPrecision;text-rendering:geometricPrecision"
       transform="matrix(0.26458333,0,0,0.26458333,-154.95083,107.61744)">
      <path
         style="opacity:1"
         fill="#9b8f8e"
         d="m 866.5,170.5 c 2.101,3.297 3.435,6.963 4,11 -2.101,-3.297 -3.435,-6.963 -4,-11 z"
         id="path2692" />
    </g>
    <g
       id="g2698"
       style="clip-rule:evenodd;fill-rule:evenodd;image-rendering:optimizeQuality;shape-rendering:geometricPrecision;text-rendering:geometricPrecision"
       transform="matrix(0.26458333,0,0,0.26458333,-154.95083,107.61744)">
      <path
         style="opacity:1"
         fill="#9b8f8e"
         d="m 937.5,172.5 c -0.31,4.2 0.357,8.2 2,12 -2.14,-1.995 -3.473,-4.495 -4,-7.5 0.599,-1.622 1.266,-3.122 2,-4.5 z"
         id="path2696" />
    </g>
    <g
       id="g2718"
       style="clip-rule:evenodd;fill-rule:evenodd;image-rendering:optimizeQuality;shape-rendering:geometricPrecision;text-rendering:geometricPrecision"
       transform="matrix(0.26458333,0,0,0.26458333,-154.95083,107.61744)">
      <path
         style="opacity:1"
         fill="#9b8f8e"
         d="m 1098.5,179.5 c -0.23,3.042 -1.23,5.708 -3,8 0.23,-3.042 1.23,-5.708 3,-8 z"
         id="path2716" />
    </g>
    <g
       id="g2722"
       style="clip-rule:evenodd;fill-rule:evenodd;image-rendering:optimizeQuality;shape-rendering:geometricPrecision;text-rendering:geometricPrecision"
       transform="matrix(0.26458333,0,0,0.26458333,-154.95083,107.61744)">
      <path
         style="opacity:1"
         fill="#9b8f8e"
         d="m 870.5,181.5 c 2.841,4.349 5.174,9.016 7,14 -3.374,-4.081 -5.707,-8.747 -7,-14 z"
         id="path2720" />
    </g>
    <g
       id="g2730"
       style="clip-rule:evenodd;fill-rule:evenodd;image-rendering:optimizeQuality;shape-rendering:geometricPrecision;text-rendering:geometricPrecision"
       transform="matrix(0.26458333,0,0,0.26458333,-154.95083,107.61744)">
      <path
         style="opacity:1"
         fill="#9b8f8e"
         d="m 1083.5,182.5 c 0.04,2.589 -0.96,4.589 -3,6 0.49,-2.319 1.49,-4.319 3,-6 z"
         id="path2728" />
    </g>
    <g
       id="g2742"
       style="clip-rule:evenodd;fill-rule:evenodd;image-rendering:optimizeQuality;shape-rendering:geometricPrecision;text-rendering:geometricPrecision"
       transform="matrix(0.26458333,0,0,0.26458333,-154.95083,107.61744)">
      <path
         style="opacity:1"
         fill="#9b8f8e"
         d="m 955.5,187.5 c -0.111,0.617 -0.444,1.117 -1,1.5 -3.196,0.805 -6.196,0.638 -9,-0.5 3.402,0.158 6.736,-0.176 10,-1 z"
         id="path2740" />
    </g>
    <g
       id="g2770"
       style="clip-rule:evenodd;fill-rule:evenodd;image-rendering:optimizeQuality;shape-rendering:geometricPrecision;text-rendering:geometricPrecision"
       transform="matrix(0.26458333,0,0,0.26458333,-154.95083,107.61744)">
      <path
         style="opacity:1"
         fill="#9b8f8e"
         d="m 957.5,238.5 c -0.674,-14.402 -1.341,-28.902 -2,-43.5 -4.587,-0.799 -9.087,-0.632 -13.5,0.5 -0.333,11 -0.667,22 -1,33 -0.202,1.756 -0.702,3.422 -1.5,5 -0.607,-0.124 -0.94,-0.457 -1,-1 0.974,-2.798 1.64,-5.798 2,-9 0.165,-6.61 -0.168,-13.277 -1,-20 0.639,-2.975 1.139,-5.975 1.5,-9 5.082,-1.137 10.249,-1.304 15.5,-0.5 0.667,0.667 1.333,1.333 2,2 -0.99,14.088 -1.324,28.255 -1,42.5 z"
         id="path2768" />
    </g>
    <g
       id="g2786"
       style="clip-rule:evenodd;fill-rule:evenodd;image-rendering:optimizeQuality;shape-rendering:geometricPrecision;text-rendering:geometricPrecision"
       transform="matrix(0.26458333,0,0,0.26458333,-154.95083,107.61744)">
      <path
         style="opacity:1"
         fill="#9b8f8e"
         d="m 1076.5,195.5 c -0.58,2.249 -1.91,3.915 -4,5 0.58,-2.249 1.91,-3.915 4,-5 z"
         id="path2784" />
    </g>
    <g
       id="g2826"
       style="clip-rule:evenodd;fill-rule:evenodd;image-rendering:optimizeQuality;shape-rendering:geometricPrecision;text-rendering:geometricPrecision"
       transform="matrix(0.26458333,0,0,0.26458333,-154.95083,107.61744)">
      <path
         style="opacity:1"
         fill="#9b8f8e"
         d="m 1070.5,202.5 c -0.58,2.249 -1.91,3.915 -4,5 0.58,-2.249 1.91,-3.915 4,-5 z"
         id="path2824" />
    </g>
    <g
       id="g2842"
       style="clip-rule:evenodd;fill-rule:evenodd;image-rendering:optimizeQuality;shape-rendering:geometricPrecision;text-rendering:geometricPrecision"
       transform="matrix(0.26458333,0,0,0.26458333,-154.95083,107.61744)">
      <path
         style="opacity:1"
         fill="#9b8f8e"
         d="m 899.5,204.5 c 3.667,3 7,6.333 10,10 -4.333,-2.333 -7.667,-5.667 -10,-10 z"
         id="path2840" />
    </g>
    <g
       id="g2886"
       style="clip-rule:evenodd;fill-rule:evenodd;image-rendering:optimizeQuality;shape-rendering:geometricPrecision;text-rendering:geometricPrecision"
       transform="matrix(0.26458333,0,0,0.26458333,-154.95083,107.61744)">
      <path
         style="opacity:1"
         fill="#9b8f8e"
         d="m 1060.5,213.5 c -1.08,2.087 -2.75,3.42 -5,4 1.08,-2.087 2.75,-3.42 5,-4 z"
         id="path2884" />
    </g>
    <g
       id="g2890"
       style="clip-rule:evenodd;fill-rule:evenodd;image-rendering:optimizeQuality;shape-rendering:geometricPrecision;text-rendering:geometricPrecision"
       transform="matrix(0.26458333,0,0,0.26458333,-154.95083,107.61744)">
      <path
         style="opacity:1"
         fill="#9b8f8e"
         d="m 1078.5,213.5 c -2.33,4.333 -5.67,7.667 -10,10 3,-3.667 6.33,-7 10,-10 z"
         id="path2888" />
    </g>
    <g
       id="g2942"
       style="clip-rule:evenodd;fill-rule:evenodd;image-rendering:optimizeQuality;shape-rendering:geometricPrecision;text-rendering:geometricPrecision"
       transform="matrix(0.26458333,0,0,0.26458333,-154.95083,107.61744)">
      <path
         style="opacity:1"
         fill="#9b8f8e"
         d="m 1066.5,225.5 c -1.08,2.087 -2.75,3.42 -5,4 1.08,-2.087 2.75,-3.42 5,-4 z"
         id="path2940" />
    </g>
    <g
       id="g2970"
       style="clip-rule:evenodd;fill-rule:evenodd;image-rendering:optimizeQuality;shape-rendering:geometricPrecision;text-rendering:geometricPrecision"
       transform="matrix(0.26458333,0,0,0.26458333,-154.95083,107.61744)">
      <path
         style="opacity:1"
         fill="#9b8f8e"
         d="m 1039.5,228.5 c -1.93,1.793 -4.26,2.793 -7,3 1.93,-1.793 4.26,-2.793 7,-3 z"
         id="path2968" />
    </g>
    <g
       id="g3058"
       style="clip-rule:evenodd;fill-rule:evenodd;image-rendering:optimizeQuality;shape-rendering:geometricPrecision;text-rendering:geometricPrecision"
       transform="matrix(0.26458333,0,0,0.26458333,-154.95083,107.61744)">
      <path
         style="opacity:1"
         fill="#9b8f8e"
         d="m 920.5,237.5 c 4.984,1.826 9.651,4.159 14,7 -5.253,-1.293 -9.919,-3.626 -14,-7 z"
         id="path3056" />
    </g>
    <g
       id="g3082"
       style="clip-rule:evenodd;fill-rule:evenodd;image-rendering:optimizeQuality;shape-rendering:geometricPrecision;text-rendering:geometricPrecision"
       transform="matrix(0.26458333,0,0,0.26458333,-154.95083,107.61744)">
      <path
         style="opacity:1"
         fill="#9b8f8e"
         d="m 1037.5,243.5 c -2.87,2.294 -6.2,3.628 -10,4 3.03,-1.903 6.36,-3.237 10,-4 z"
         id="path3080" />
    </g>
    <g
       id="g3094"
       style="clip-rule:evenodd;fill-rule:evenodd;image-rendering:optimizeQuality;shape-rendering:geometricPrecision;text-rendering:geometricPrecision"
       transform="matrix(0.26458333,0,0,0.26458333,-154.95083,107.61744)">
      <path
         style="opacity:1"
         fill="#9b8f8e"
         d="m 939.5,246.5 c 5.55,1.296 10.883,2.963 16,5 -5.8,-0.491 -11.133,-2.157 -16,-5 z"
         id="path3092" />
    </g>
    <g
       id="g3114"
       style="clip-rule:evenodd;fill-rule:evenodd;image-rendering:optimizeQuality;shape-rendering:geometricPrecision;text-rendering:geometricPrecision"
       transform="matrix(0.26458333,0,0,0.26458333,-154.95083,107.61744)">
      <path
         style="opacity:1"
         fill="#9b8f8e"
         d="m 1012.5,251.5 c -7.45,1.853 -15.115,3.187 -23,4 0.166,10.006 0,20.006 -0.5,30 -5.072,0.971 -10.238,1.305 -15.5,1 0,-10.333 0,-20.667 0,-31 -3.227,-0.176 -6.227,-0.843 -9,-2 3.381,-0.04 6.714,0.293 10,1 0,10.333 0,20.667 0,31 4.599,0.3 9.099,-0.033 13.5,-1 0.106,-9.904 0.272,-19.904 0.5,-30 7.973,-1.218 15.97,-2.218 24,-3 z"
         id="path3112" />
    </g>
  </g>
</svg>
